<svg class="main-svg" xmlns="http://www.w3.org/2000/svg" xmlns:xlink="http://www.w3.org/1999/xlink" width="800" height="400" style="" viewBox="0 0 800 400"><rect x="0" y="0" width="800" height="400" style="fill: rgb(255, 255, 255); fill-opacity: 1;"/><defs id="defs-3d7de8"><g class="clips"><clipPath id="clip3d7de8xyplot" class="plotclip"><rect width="751" height="197"/></clipPath><clipPath class="axesclip" id="clip3d7de8x"><rect x="49" y="0" width="751" height="400"/></clipPath><clipPath class="axesclip" id="clip3d7de8y"><rect x="0" y="150" width="800" height="197"/></clipPath><clipPath class="axesclip" id="clip3d7de8xy"><rect x="49" y="150" width="751" height="197"/></clipPath></g><g class="gradients"/><g class="patterns"/></defs><g class="bglayer"><rect class="bg" x="49" y="150" width="751" height="197" style="fill: rgb(229, 236, 246); fill-opacity: 1; stroke-width: 0;"/></g><g class="layer-below"><g class="imagelayer"/><g class="shapelayer"/></g><g class="cartesianlayer"><g class="subplot xy"><g class="layer-subplot"><g class="shapelayer"/><g class="imagelayer"/></g><g class="minor-gridlayer"><g class="x"/><g class="y"/></g><g class="gridlayer"><g class="x"><path class="xgrid crisp" transform="translate(179.42,0)" d="M0,150v197" style="stroke: rgb(255, 255, 255); stroke-opacity: 1; stroke-width: 1px;"/><path class="xgrid crisp" transform="translate(268.53999999999996,0)" d="M0,150v197" style="stroke: rgb(255, 255, 255); stroke-opacity: 1; stroke-width: 1px;"/><path class="xgrid crisp" transform="translate(357.66,0)" d="M0,150v197" style="stroke: rgb(255, 255, 255); stroke-opacity: 1; stroke-width: 1px;"/><path class="xgrid crisp" transform="translate(446.78,0)" d="M0,150v197" style="stroke: rgb(255, 255, 255); stroke-opacity: 1; stroke-width: 1px;"/><path class="xgrid crisp" transform="translate(535.9,0)" d="M0,150v197" style="stroke: rgb(255, 255, 255); stroke-opacity: 1; stroke-width: 1px;"/><path class="xgrid crisp" transform="translate(625.02,0)" d="M0,150v197" style="stroke: rgb(255, 255, 255); stroke-opacity: 1; stroke-width: 1px;"/><path class="xgrid crisp" transform="translate(714.14,0)" d="M0,150v197" style="stroke: rgb(255, 255, 255); stroke-opacity: 1; stroke-width: 1px;"/></g><g class="y"><path class="ygrid crisp" transform="translate(0,287.12)" d="M49,0h751" style="stroke: rgb(255, 255, 255); stroke-opacity: 1; stroke-width: 1px;"/><path class="ygrid crisp" transform="translate(0,240.84)" d="M49,0h751" style="stroke: rgb(255, 255, 255); stroke-opacity: 1; stroke-width: 1px;"/><path class="ygrid crisp" transform="translate(0,194.56)" d="M49,0h751" style="stroke: rgb(255, 255, 255); stroke-opacity: 1; stroke-width: 1px;"/></g></g><g class="zerolinelayer"><path class="xzl zl crisp" transform="translate(90.3,0)" d="M0,150v197" style="stroke: rgb(255, 255, 255); stroke-opacity: 1; stroke-width: 2px;"/><path class="yzl zl crisp" transform="translate(0,333.4)" d="M49,0h751" style="stroke: rgb(255, 255, 255); stroke-opacity: 1; stroke-width: 2px;"/></g><g class="layer-between"><g class="shapelayer"/><g class="imagelayer"/></g><path class="xlines-below"/><path class="ylines-below"/><g class="overlines-below"/><g class="xaxislayer-below"/><g class="yaxislayer-below"/><g class="overaxes-below"/><g class="overplot"><g class="xy" transform="translate(49,150)" clip-path="url(#clip3d7de8xyplot)"><g class="scatterlayer mlayer"><g class="trace scatter trace0d966e" style="stroke-miterlimit: 2; opacity: 1;"><g class="fills"/><g class="errorbars"/><g class="lines"><path class="js-line" d="M41.3,183.4L709.7,9.85" style="vector-effect: none; fill: none; stroke: rgb(97, 107, 250); stroke-opacity: 1; stroke-width: 2px; opacity: 1;"/></g><g class="points"/><g class="text"/></g><g class="trace scatter tracecb0621" style="stroke-miterlimit: 2; opacity: 1;"><g class="fills"/><g class="errorbars"/><g class="lines"/><g class="points"><path class="point" transform="translate(41.3,183.4)" d="M3,0A3,3 0 1,1 0,-3A3,3 0 0,1 3,0Z" style="opacity: 1; stroke-width: 0px; fill: rgb(97, 107, 250); fill-opacity: 1;"/><path class="point" transform="translate(41.3,183.4)" d="M3,0A3,3 0 1,1 0,-3A3,3 0 0,1 3,0Z" style="opacity: 1; stroke-width: 0px; fill: rgb(97, 107, 250); fill-opacity: 1;"/><path class="point" transform="translate(56.15,183.4)" d="M3,0A3,3 0 1,1 0,-3A3,3 0 0,1 3,0Z" style="opacity: 1; stroke-width: 0px; fill: rgb(97, 107, 250); fill-opacity: 1;"/><path class="point" transform="translate(61.1,179.54)" d="M3,0A3,3 0 1,1 0,-3A3,3 0 0,1 3,0Z" style="opacity: 1; stroke-width: 0px; fill: rgb(97, 107, 250); fill-opacity: 1;"/><path class="point" transform="translate(71.01,178.26)" d="M3,0A3,3 0 1,1 0,-3A3,3 0 0,1 3,0Z" style="opacity: 1; stroke-width: 0px; fill: rgb(97, 107, 250); fill-opacity: 1;"/><path class="point" transform="translate(71.01,178.26)" d="M3,0A3,3 0 1,1 0,-3A3,3 0 0,1 3,0Z" style="opacity: 1; stroke-width: 0px; fill: rgb(97, 107, 250); fill-opacity: 1;"/><path class="point" transform="translate(71.01,178.26)" d="M3,0A3,3 0 1,1 0,-3A3,3 0 0,1 3,0Z" style="opacity: 1; stroke-width: 0px; fill: rgb(97, 107, 250); fill-opacity: 1;"/><path class="point" transform="translate(71.01,175.69)" d="M3,0A3,3 0 1,1 0,-3A3,3 0 0,1 3,0Z" style="opacity: 1; stroke-width: 0px; fill: rgb(97, 107, 250); fill-opacity: 1;"/><path class="point" transform="translate(75.96,175.69)" d="M3,0A3,3 0 1,1 0,-3A3,3 0 0,1 3,0Z" style="opacity: 1; stroke-width: 0px; fill: rgb(97, 107, 250); fill-opacity: 1;"/><path class="point" transform="translate(80.91,175.69)" d="M3,0A3,3 0 1,1 0,-3A3,3 0 0,1 3,0Z" style="opacity: 1; stroke-width: 0px; fill: rgb(97, 107, 250); fill-opacity: 1;"/><path class="point" transform="translate(85.86,175.69)" d="M3,0A3,3 0 1,1 0,-3A3,3 0 0,1 3,0Z" style="opacity: 1; stroke-width: 0px; fill: rgb(97, 107, 250); fill-opacity: 1;"/><path class="point" transform="translate(85.86,175.69)" d="M3,0A3,3 0 1,1 0,-3A3,3 0 0,1 3,0Z" style="opacity: 1; stroke-width: 0px; fill: rgb(97, 107, 250); fill-opacity: 1;"/><path class="point" transform="translate(90.81,174.4)" d="M3,0A3,3 0 1,1 0,-3A3,3 0 0,1 3,0Z" style="opacity: 1; stroke-width: 0px; fill: rgb(97, 107, 250); fill-opacity: 1;"/><path class="point" transform="translate(90.81,174.4)" d="M3,0A3,3 0 1,1 0,-3A3,3 0 0,1 3,0Z" style="opacity: 1; stroke-width: 0px; fill: rgb(97, 107, 250); fill-opacity: 1;"/><path class="point" transform="translate(90.81,174.4)" d="M3,0A3,3 0 1,1 0,-3A3,3 0 0,1 3,0Z" style="opacity: 1; stroke-width: 0px; fill: rgb(97, 107, 250); fill-opacity: 1;"/><path class="point" transform="translate(90.81,174.4)" d="M3,0A3,3 0 1,1 0,-3A3,3 0 0,1 3,0Z" style="opacity: 1; stroke-width: 0px; fill: rgb(97, 107, 250); fill-opacity: 1;"/><path class="point" transform="translate(90.81,174.4)" d="M3,0A3,3 0 1,1 0,-3A3,3 0 0,1 3,0Z" style="opacity: 1; stroke-width: 0px; fill: rgb(97, 107, 250); fill-opacity: 1;"/><path class="point" transform="translate(90.81,173.12)" d="M3,0A3,3 0 1,1 0,-3A3,3 0 0,1 3,0Z" style="opacity: 1; stroke-width: 0px; fill: rgb(97, 107, 250); fill-opacity: 1;"/><path class="point" transform="translate(95.76,173.12)" d="M3,0A3,3 0 1,1 0,-3A3,3 0 0,1 3,0Z" style="opacity: 1; stroke-width: 0px; fill: rgb(97, 107, 250); fill-opacity: 1;"/><path class="point" transform="translate(95.76,171.83)" d="M3,0A3,3 0 1,1 0,-3A3,3 0 0,1 3,0Z" style="opacity: 1; stroke-width: 0px; fill: rgb(97, 107, 250); fill-opacity: 1;"/><path class="point" transform="translate(105.66,171.83)" d="M3,0A3,3 0 1,1 0,-3A3,3 0 0,1 3,0Z" style="opacity: 1; stroke-width: 0px; fill: rgb(97, 107, 250); fill-opacity: 1;"/><path class="point" transform="translate(105.66,171.83)" d="M3,0A3,3 0 1,1 0,-3A3,3 0 0,1 3,0Z" style="opacity: 1; stroke-width: 0px; fill: rgb(97, 107, 250); fill-opacity: 1;"/><path class="point" transform="translate(105.66,171.83)" d="M3,0A3,3 0 1,1 0,-3A3,3 0 0,1 3,0Z" style="opacity: 1; stroke-width: 0px; fill: rgb(97, 107, 250); fill-opacity: 1;"/><path class="point" transform="translate(105.66,171.83)" d="M3,0A3,3 0 1,1 0,-3A3,3 0 0,1 3,0Z" style="opacity: 1; stroke-width: 0px; fill: rgb(97, 107, 250); fill-opacity: 1;"/><path class="point" transform="translate(105.66,171.83)" d="M3,0A3,3 0 1,1 0,-3A3,3 0 0,1 3,0Z" style="opacity: 1; stroke-width: 0px; fill: rgb(97, 107, 250); fill-opacity: 1;"/><path class="point" transform="translate(105.66,171.83)" d="M3,0A3,3 0 1,1 0,-3A3,3 0 0,1 3,0Z" style="opacity: 1; stroke-width: 0px; fill: rgb(97, 107, 250); fill-opacity: 1;"/><path class="point" transform="translate(105.66,170.54)" d="M3,0A3,3 0 1,1 0,-3A3,3 0 0,1 3,0Z" style="opacity: 1; stroke-width: 0px; fill: rgb(97, 107, 250); fill-opacity: 1;"/><path class="point" transform="translate(105.66,170.54)" d="M3,0A3,3 0 1,1 0,-3A3,3 0 0,1 3,0Z" style="opacity: 1; stroke-width: 0px; fill: rgb(97, 107, 250); fill-opacity: 1;"/><path class="point" transform="translate(105.66,169.26)" d="M3,0A3,3 0 1,1 0,-3A3,3 0 0,1 3,0Z" style="opacity: 1; stroke-width: 0px; fill: rgb(97, 107, 250); fill-opacity: 1;"/><path class="point" transform="translate(115.57,169.26)" d="M3,0A3,3 0 1,1 0,-3A3,3 0 0,1 3,0Z" style="opacity: 1; stroke-width: 0px; fill: rgb(97, 107, 250); fill-opacity: 1;"/><path class="point" transform="translate(115.57,169.26)" d="M3,0A3,3 0 1,1 0,-3A3,3 0 0,1 3,0Z" style="opacity: 1; stroke-width: 0px; fill: rgb(97, 107, 250); fill-opacity: 1;"/><path class="point" transform="translate(115.57,169.26)" d="M3,0A3,3 0 1,1 0,-3A3,3 0 0,1 3,0Z" style="opacity: 1; stroke-width: 0px; fill: rgb(97, 107, 250); fill-opacity: 1;"/><path class="point" transform="translate(120.52,169.26)" d="M3,0A3,3 0 1,1 0,-3A3,3 0 0,1 3,0Z" style="opacity: 1; stroke-width: 0px; fill: rgb(97, 107, 250); fill-opacity: 1;"/><path class="point" transform="translate(120.52,169.26)" d="M3,0A3,3 0 1,1 0,-3A3,3 0 0,1 3,0Z" style="opacity: 1; stroke-width: 0px; fill: rgb(97, 107, 250); fill-opacity: 1;"/><path class="point" transform="translate(120.52,169.26)" d="M3,0A3,3 0 1,1 0,-3A3,3 0 0,1 3,0Z" style="opacity: 1; stroke-width: 0px; fill: rgb(97, 107, 250); fill-opacity: 1;"/><path class="point" transform="translate(120.52,169.26)" d="M3,0A3,3 0 1,1 0,-3A3,3 0 0,1 3,0Z" style="opacity: 1; stroke-width: 0px; fill: rgb(97, 107, 250); fill-opacity: 1;"/><path class="point" transform="translate(120.52,169.26)" d="M3,0A3,3 0 1,1 0,-3A3,3 0 0,1 3,0Z" style="opacity: 1; stroke-width: 0px; fill: rgb(97, 107, 250); fill-opacity: 1;"/><path class="point" transform="translate(120.52,167.97)" d="M3,0A3,3 0 1,1 0,-3A3,3 0 0,1 3,0Z" style="opacity: 1; stroke-width: 0px; fill: rgb(97, 107, 250); fill-opacity: 1;"/><path class="point" transform="translate(120.52,167.97)" d="M3,0A3,3 0 1,1 0,-3A3,3 0 0,1 3,0Z" style="opacity: 1; stroke-width: 0px; fill: rgb(97, 107, 250); fill-opacity: 1;"/><path class="point" transform="translate(120.52,166.69)" d="M3,0A3,3 0 1,1 0,-3A3,3 0 0,1 3,0Z" style="opacity: 1; stroke-width: 0px; fill: rgb(97, 107, 250); fill-opacity: 1;"/><path class="point" transform="translate(120.52,166.69)" d="M3,0A3,3 0 1,1 0,-3A3,3 0 0,1 3,0Z" style="opacity: 1; stroke-width: 0px; fill: rgb(97, 107, 250); fill-opacity: 1;"/><path class="point" transform="translate(120.52,166.69)" d="M3,0A3,3 0 1,1 0,-3A3,3 0 0,1 3,0Z" style="opacity: 1; stroke-width: 0px; fill: rgb(97, 107, 250); fill-opacity: 1;"/><path class="point" transform="translate(125.47,166.69)" d="M3,0A3,3 0 1,1 0,-3A3,3 0 0,1 3,0Z" style="opacity: 1; stroke-width: 0px; fill: rgb(97, 107, 250); fill-opacity: 1;"/><path class="point" transform="translate(125.47,166.69)" d="M3,0A3,3 0 1,1 0,-3A3,3 0 0,1 3,0Z" style="opacity: 1; stroke-width: 0px; fill: rgb(97, 107, 250); fill-opacity: 1;"/><path class="point" transform="translate(125.47,166.69)" d="M3,0A3,3 0 1,1 0,-3A3,3 0 0,1 3,0Z" style="opacity: 1; stroke-width: 0px; fill: rgb(97, 107, 250); fill-opacity: 1;"/><path class="point" transform="translate(135.37,166.69)" d="M3,0A3,3 0 1,1 0,-3A3,3 0 0,1 3,0Z" style="opacity: 1; stroke-width: 0px; fill: rgb(97, 107, 250); fill-opacity: 1;"/><path class="point" transform="translate(135.37,166.69)" d="M3,0A3,3 0 1,1 0,-3A3,3 0 0,1 3,0Z" style="opacity: 1; stroke-width: 0px; fill: rgb(97, 107, 250); fill-opacity: 1;"/><path class="point" transform="translate(135.37,166.69)" d="M3,0A3,3 0 1,1 0,-3A3,3 0 0,1 3,0Z" style="opacity: 1; stroke-width: 0px; fill: rgb(97, 107, 250); fill-opacity: 1;"/><path class="point" transform="translate(135.37,165.4)" d="M3,0A3,3 0 1,1 0,-3A3,3 0 0,1 3,0Z" style="opacity: 1; stroke-width: 0px; fill: rgb(97, 107, 250); fill-opacity: 1;"/><path class="point" transform="translate(135.37,165.4)" d="M3,0A3,3 0 1,1 0,-3A3,3 0 0,1 3,0Z" style="opacity: 1; stroke-width: 0px; fill: rgb(97, 107, 250); fill-opacity: 1;"/><path class="point" transform="translate(135.37,165.4)" d="M3,0A3,3 0 1,1 0,-3A3,3 0 0,1 3,0Z" style="opacity: 1; stroke-width: 0px; fill: rgb(97, 107, 250); fill-opacity: 1;"/><path class="point" transform="translate(135.37,164.12)" d="M3,0A3,3 0 1,1 0,-3A3,3 0 0,1 3,0Z" style="opacity: 1; stroke-width: 0px; fill: rgb(97, 107, 250); fill-opacity: 1;"/><path class="point" transform="translate(135.37,164.12)" d="M3,0A3,3 0 1,1 0,-3A3,3 0 0,1 3,0Z" style="opacity: 1; stroke-width: 0px; fill: rgb(97, 107, 250); fill-opacity: 1;"/><path class="point" transform="translate(135.37,164.12)" d="M3,0A3,3 0 1,1 0,-3A3,3 0 0,1 3,0Z" style="opacity: 1; stroke-width: 0px; fill: rgb(97, 107, 250); fill-opacity: 1;"/><path class="point" transform="translate(135.37,164.12)" d="M3,0A3,3 0 1,1 0,-3A3,3 0 0,1 3,0Z" style="opacity: 1; stroke-width: 0px; fill: rgb(97, 107, 250); fill-opacity: 1;"/><path class="point" transform="translate(135.37,164.12)" d="M3,0A3,3 0 1,1 0,-3A3,3 0 0,1 3,0Z" style="opacity: 1; stroke-width: 0px; fill: rgb(97, 107, 250); fill-opacity: 1;"/><path class="point" transform="translate(135.37,164.12)" d="M3,0A3,3 0 1,1 0,-3A3,3 0 0,1 3,0Z" style="opacity: 1; stroke-width: 0px; fill: rgb(97, 107, 250); fill-opacity: 1;"/><path class="point" transform="translate(135.37,164.12)" d="M3,0A3,3 0 1,1 0,-3A3,3 0 0,1 3,0Z" style="opacity: 1; stroke-width: 0px; fill: rgb(97, 107, 250); fill-opacity: 1;"/><path class="point" transform="translate(135.37,164.12)" d="M3,0A3,3 0 1,1 0,-3A3,3 0 0,1 3,0Z" style="opacity: 1; stroke-width: 0px; fill: rgb(97, 107, 250); fill-opacity: 1;"/><path class="point" transform="translate(135.37,164.12)" d="M3,0A3,3 0 1,1 0,-3A3,3 0 0,1 3,0Z" style="opacity: 1; stroke-width: 0px; fill: rgb(97, 107, 250); fill-opacity: 1;"/><path class="point" transform="translate(140.32,162.83)" d="M3,0A3,3 0 1,1 0,-3A3,3 0 0,1 3,0Z" style="opacity: 1; stroke-width: 0px; fill: rgb(97, 107, 250); fill-opacity: 1;"/><path class="point" transform="translate(140.32,162.83)" d="M3,0A3,3 0 1,1 0,-3A3,3 0 0,1 3,0Z" style="opacity: 1; stroke-width: 0px; fill: rgb(97, 107, 250); fill-opacity: 1;"/><path class="point" transform="translate(150.22,162.83)" d="M3,0A3,3 0 1,1 0,-3A3,3 0 0,1 3,0Z" style="opacity: 1; stroke-width: 0px; fill: rgb(97, 107, 250); fill-opacity: 1;"/><path class="point" transform="translate(150.22,161.55)" d="M3,0A3,3 0 1,1 0,-3A3,3 0 0,1 3,0Z" style="opacity: 1; stroke-width: 0px; fill: rgb(97, 107, 250); fill-opacity: 1;"/><path class="point" transform="translate(150.22,161.55)" d="M3,0A3,3 0 1,1 0,-3A3,3 0 0,1 3,0Z" style="opacity: 1; stroke-width: 0px; fill: rgb(97, 107, 250); fill-opacity: 1;"/><path class="point" transform="translate(155.18,161.55)" d="M3,0A3,3 0 1,1 0,-3A3,3 0 0,1 3,0Z" style="opacity: 1; stroke-width: 0px; fill: rgb(97, 107, 250); fill-opacity: 1;"/><path class="point" transform="translate(155.18,161.55)" d="M3,0A3,3 0 1,1 0,-3A3,3 0 0,1 3,0Z" style="opacity: 1; stroke-width: 0px; fill: rgb(97, 107, 250); fill-opacity: 1;"/><path class="point" transform="translate(155.18,161.55)" d="M3,0A3,3 0 1,1 0,-3A3,3 0 0,1 3,0Z" style="opacity: 1; stroke-width: 0px; fill: rgb(97, 107, 250); fill-opacity: 1;"/><path class="point" transform="translate(155.18,161.55)" d="M3,0A3,3 0 1,1 0,-3A3,3 0 0,1 3,0Z" style="opacity: 1; stroke-width: 0px; fill: rgb(97, 107, 250); fill-opacity: 1;"/><path class="point" transform="translate(155.18,161.55)" d="M3,0A3,3 0 1,1 0,-3A3,3 0 0,1 3,0Z" style="opacity: 1; stroke-width: 0px; fill: rgb(97, 107, 250); fill-opacity: 1;"/><path class="point" transform="translate(155.18,161.55)" d="M3,0A3,3 0 1,1 0,-3A3,3 0 0,1 3,0Z" style="opacity: 1; stroke-width: 0px; fill: rgb(97, 107, 250); fill-opacity: 1;"/><path class="point" transform="translate(155.18,161.55)" d="M3,0A3,3 0 1,1 0,-3A3,3 0 0,1 3,0Z" style="opacity: 1; stroke-width: 0px; fill: rgb(97, 107, 250); fill-opacity: 1;"/><path class="point" transform="translate(155.18,161.55)" d="M3,0A3,3 0 1,1 0,-3A3,3 0 0,1 3,0Z" style="opacity: 1; stroke-width: 0px; fill: rgb(97, 107, 250); fill-opacity: 1;"/><path class="point" transform="translate(155.18,160.26)" d="M3,0A3,3 0 1,1 0,-3A3,3 0 0,1 3,0Z" style="opacity: 1; stroke-width: 0px; fill: rgb(97, 107, 250); fill-opacity: 1;"/><path class="point" transform="translate(155.18,160.26)" d="M3,0A3,3 0 1,1 0,-3A3,3 0 0,1 3,0Z" style="opacity: 1; stroke-width: 0px; fill: rgb(97, 107, 250); fill-opacity: 1;"/><path class="point" transform="translate(160.13,160.26)" d="M3,0A3,3 0 1,1 0,-3A3,3 0 0,1 3,0Z" style="opacity: 1; stroke-width: 0px; fill: rgb(97, 107, 250); fill-opacity: 1;"/><path class="point" transform="translate(160.13,158.97)" d="M3,0A3,3 0 1,1 0,-3A3,3 0 0,1 3,0Z" style="opacity: 1; stroke-width: 0px; fill: rgb(97, 107, 250); fill-opacity: 1;"/><path class="point" transform="translate(160.13,158.97)" d="M3,0A3,3 0 1,1 0,-3A3,3 0 0,1 3,0Z" style="opacity: 1; stroke-width: 0px; fill: rgb(97, 107, 250); fill-opacity: 1;"/><path class="point" transform="translate(160.13,158.97)" d="M3,0A3,3 0 1,1 0,-3A3,3 0 0,1 3,0Z" style="opacity: 1; stroke-width: 0px; fill: rgb(97, 107, 250); fill-opacity: 1;"/><path class="point" transform="translate(170.03,158.97)" d="M3,0A3,3 0 1,1 0,-3A3,3 0 0,1 3,0Z" style="opacity: 1; stroke-width: 0px; fill: rgb(97, 107, 250); fill-opacity: 1;"/><path class="point" transform="translate(170.03,158.97)" d="M3,0A3,3 0 1,1 0,-3A3,3 0 0,1 3,0Z" style="opacity: 1; stroke-width: 0px; fill: rgb(97, 107, 250); fill-opacity: 1;"/><path class="point" transform="translate(170.03,158.97)" d="M3,0A3,3 0 1,1 0,-3A3,3 0 0,1 3,0Z" style="opacity: 1; stroke-width: 0px; fill: rgb(97, 107, 250); fill-opacity: 1;"/><path class="point" transform="translate(170.03,158.97)" d="M3,0A3,3 0 1,1 0,-3A3,3 0 0,1 3,0Z" style="opacity: 1; stroke-width: 0px; fill: rgb(97, 107, 250); fill-opacity: 1;"/><path class="point" transform="translate(170.03,158.97)" d="M3,0A3,3 0 1,1 0,-3A3,3 0 0,1 3,0Z" style="opacity: 1; stroke-width: 0px; fill: rgb(97, 107, 250); fill-opacity: 1;"/><path class="point" transform="translate(170.03,158.97)" d="M3,0A3,3 0 1,1 0,-3A3,3 0 0,1 3,0Z" style="opacity: 1; stroke-width: 0px; fill: rgb(97, 107, 250); fill-opacity: 1;"/><path class="point" transform="translate(170.03,158.97)" d="M3,0A3,3 0 1,1 0,-3A3,3 0 0,1 3,0Z" style="opacity: 1; stroke-width: 0px; fill: rgb(97, 107, 250); fill-opacity: 1;"/><path class="point" transform="translate(170.03,158.97)" d="M3,0A3,3 0 1,1 0,-3A3,3 0 0,1 3,0Z" style="opacity: 1; stroke-width: 0px; fill: rgb(97, 107, 250); fill-opacity: 1;"/><path class="point" transform="translate(170.03,157.69)" d="M3,0A3,3 0 1,1 0,-3A3,3 0 0,1 3,0Z" style="opacity: 1; stroke-width: 0px; fill: rgb(97, 107, 250); fill-opacity: 1;"/><path class="point" transform="translate(170.03,157.69)" d="M3,0A3,3 0 1,1 0,-3A3,3 0 0,1 3,0Z" style="opacity: 1; stroke-width: 0px; fill: rgb(97, 107, 250); fill-opacity: 1;"/><path class="point" transform="translate(170.03,157.69)" d="M3,0A3,3 0 1,1 0,-3A3,3 0 0,1 3,0Z" style="opacity: 1; stroke-width: 0px; fill: rgb(97, 107, 250); fill-opacity: 1;"/><path class="point" transform="translate(170.03,157.69)" d="M3,0A3,3 0 1,1 0,-3A3,3 0 0,1 3,0Z" style="opacity: 1; stroke-width: 0px; fill: rgb(97, 107, 250); fill-opacity: 1;"/><path class="point" transform="translate(170.03,157.69)" d="M3,0A3,3 0 1,1 0,-3A3,3 0 0,1 3,0Z" style="opacity: 1; stroke-width: 0px; fill: rgb(97, 107, 250); fill-opacity: 1;"/><path class="point" transform="translate(179.93,157.69)" d="M3,0A3,3 0 1,1 0,-3A3,3 0 0,1 3,0Z" style="opacity: 1; stroke-width: 0px; fill: rgb(97, 107, 250); fill-opacity: 1;"/><path class="point" transform="translate(179.93,157.69)" d="M3,0A3,3 0 1,1 0,-3A3,3 0 0,1 3,0Z" style="opacity: 1; stroke-width: 0px; fill: rgb(97, 107, 250); fill-opacity: 1;"/><path class="point" transform="translate(179.93,157.69)" d="M3,0A3,3 0 1,1 0,-3A3,3 0 0,1 3,0Z" style="opacity: 1; stroke-width: 0px; fill: rgb(97, 107, 250); fill-opacity: 1;"/><path class="point" transform="translate(184.88,157.69)" d="M3,0A3,3 0 1,1 0,-3A3,3 0 0,1 3,0Z" style="opacity: 1; stroke-width: 0px; fill: rgb(97, 107, 250); fill-opacity: 1;"/><path class="point" transform="translate(184.88,157.69)" d="M3,0A3,3 0 1,1 0,-3A3,3 0 0,1 3,0Z" style="opacity: 1; stroke-width: 0px; fill: rgb(97, 107, 250); fill-opacity: 1;"/><path class="point" transform="translate(184.88,156.4)" d="M3,0A3,3 0 1,1 0,-3A3,3 0 0,1 3,0Z" style="opacity: 1; stroke-width: 0px; fill: rgb(97, 107, 250); fill-opacity: 1;"/><path class="point" transform="translate(184.88,156.4)" d="M3,0A3,3 0 1,1 0,-3A3,3 0 0,1 3,0Z" style="opacity: 1; stroke-width: 0px; fill: rgb(97, 107, 250); fill-opacity: 1;"/><path class="point" transform="translate(184.88,156.4)" d="M3,0A3,3 0 1,1 0,-3A3,3 0 0,1 3,0Z" style="opacity: 1; stroke-width: 0px; fill: rgb(97, 107, 250); fill-opacity: 1;"/><path class="point" transform="translate(184.88,155.12)" d="M3,0A3,3 0 1,1 0,-3A3,3 0 0,1 3,0Z" style="opacity: 1; stroke-width: 0px; fill: rgb(97, 107, 250); fill-opacity: 1;"/><path class="point" transform="translate(184.88,155.12)" d="M3,0A3,3 0 1,1 0,-3A3,3 0 0,1 3,0Z" style="opacity: 1; stroke-width: 0px; fill: rgb(97, 107, 250); fill-opacity: 1;"/><path class="point" transform="translate(184.88,155.12)" d="M3,0A3,3 0 1,1 0,-3A3,3 0 0,1 3,0Z" style="opacity: 1; stroke-width: 0px; fill: rgb(97, 107, 250); fill-opacity: 1;"/><path class="point" transform="translate(184.88,155.12)" d="M3,0A3,3 0 1,1 0,-3A3,3 0 0,1 3,0Z" style="opacity: 1; stroke-width: 0px; fill: rgb(97, 107, 250); fill-opacity: 1;"/><path class="point" transform="translate(184.88,155.12)" d="M3,0A3,3 0 1,1 0,-3A3,3 0 0,1 3,0Z" style="opacity: 1; stroke-width: 0px; fill: rgb(97, 107, 250); fill-opacity: 1;"/><path class="point" transform="translate(189.83,155.12)" d="M3,0A3,3 0 1,1 0,-3A3,3 0 0,1 3,0Z" style="opacity: 1; stroke-width: 0px; fill: rgb(97, 107, 250); fill-opacity: 1;"/><path class="point" transform="translate(189.83,155.12)" d="M3,0A3,3 0 1,1 0,-3A3,3 0 0,1 3,0Z" style="opacity: 1; stroke-width: 0px; fill: rgb(97, 107, 250); fill-opacity: 1;"/><path class="point" transform="translate(189.83,155.12)" d="M3,0A3,3 0 1,1 0,-3A3,3 0 0,1 3,0Z" style="opacity: 1; stroke-width: 0px; fill: rgb(97, 107, 250); fill-opacity: 1;"/><path class="point" transform="translate(194.78,155.12)" d="M3,0A3,3 0 1,1 0,-3A3,3 0 0,1 3,0Z" style="opacity: 1; stroke-width: 0px; fill: rgb(97, 107, 250); fill-opacity: 1;"/><path class="point" transform="translate(194.78,155.12)" d="M3,0A3,3 0 1,1 0,-3A3,3 0 0,1 3,0Z" style="opacity: 1; stroke-width: 0px; fill: rgb(97, 107, 250); fill-opacity: 1;"/><path class="point" transform="translate(199.74,153.83)" d="M3,0A3,3 0 1,1 0,-3A3,3 0 0,1 3,0Z" style="opacity: 1; stroke-width: 0px; fill: rgb(97, 107, 250); fill-opacity: 1;"/><path class="point" transform="translate(199.74,153.83)" d="M3,0A3,3 0 1,1 0,-3A3,3 0 0,1 3,0Z" style="opacity: 1; stroke-width: 0px; fill: rgb(97, 107, 250); fill-opacity: 1;"/><path class="point" transform="translate(199.74,152.55)" d="M3,0A3,3 0 1,1 0,-3A3,3 0 0,1 3,0Z" style="opacity: 1; stroke-width: 0px; fill: rgb(97, 107, 250); fill-opacity: 1;"/><path class="point" transform="translate(199.74,152.55)" d="M3,0A3,3 0 1,1 0,-3A3,3 0 0,1 3,0Z" style="opacity: 1; stroke-width: 0px; fill: rgb(97, 107, 250); fill-opacity: 1;"/><path class="point" transform="translate(199.74,152.55)" d="M3,0A3,3 0 1,1 0,-3A3,3 0 0,1 3,0Z" style="opacity: 1; stroke-width: 0px; fill: rgb(97, 107, 250); fill-opacity: 1;"/><path class="point" transform="translate(199.74,152.55)" d="M3,0A3,3 0 1,1 0,-3A3,3 0 0,1 3,0Z" style="opacity: 1; stroke-width: 0px; fill: rgb(97, 107, 250); fill-opacity: 1;"/><path class="point" transform="translate(199.74,152.55)" d="M3,0A3,3 0 1,1 0,-3A3,3 0 0,1 3,0Z" style="opacity: 1; stroke-width: 0px; fill: rgb(97, 107, 250); fill-opacity: 1;"/><path class="point" transform="translate(199.74,152.55)" d="M3,0A3,3 0 1,1 0,-3A3,3 0 0,1 3,0Z" style="opacity: 1; stroke-width: 0px; fill: rgb(97, 107, 250); fill-opacity: 1;"/><path class="point" transform="translate(199.74,152.55)" d="M3,0A3,3 0 1,1 0,-3A3,3 0 0,1 3,0Z" style="opacity: 1; stroke-width: 0px; fill: rgb(97, 107, 250); fill-opacity: 1;"/><path class="point" transform="translate(199.74,152.55)" d="M3,0A3,3 0 1,1 0,-3A3,3 0 0,1 3,0Z" style="opacity: 1; stroke-width: 0px; fill: rgb(97, 107, 250); fill-opacity: 1;"/><path class="point" transform="translate(199.74,152.55)" d="M3,0A3,3 0 1,1 0,-3A3,3 0 0,1 3,0Z" style="opacity: 1; stroke-width: 0px; fill: rgb(97, 107, 250); fill-opacity: 1;"/><path class="point" transform="translate(204.69,152.55)" d="M3,0A3,3 0 1,1 0,-3A3,3 0 0,1 3,0Z" style="opacity: 1; stroke-width: 0px; fill: rgb(97, 107, 250); fill-opacity: 1;"/><path class="point" transform="translate(204.69,151.26)" d="M3,0A3,3 0 1,1 0,-3A3,3 0 0,1 3,0Z" style="opacity: 1; stroke-width: 0px; fill: rgb(97, 107, 250); fill-opacity: 1;"/><path class="point" transform="translate(204.69,151.26)" d="M3,0A3,3 0 1,1 0,-3A3,3 0 0,1 3,0Z" style="opacity: 1; stroke-width: 0px; fill: rgb(97, 107, 250); fill-opacity: 1;"/><path class="point" transform="translate(204.69,149.98)" d="M3,0A3,3 0 1,1 0,-3A3,3 0 0,1 3,0Z" style="opacity: 1; stroke-width: 0px; fill: rgb(97, 107, 250); fill-opacity: 1;"/><path class="point" transform="translate(214.59,149.98)" d="M3,0A3,3 0 1,1 0,-3A3,3 0 0,1 3,0Z" style="opacity: 1; stroke-width: 0px; fill: rgb(97, 107, 250); fill-opacity: 1;"/><path class="point" transform="translate(214.59,149.98)" d="M3,0A3,3 0 1,1 0,-3A3,3 0 0,1 3,0Z" style="opacity: 1; stroke-width: 0px; fill: rgb(97, 107, 250); fill-opacity: 1;"/><path class="point" transform="translate(214.59,149.98)" d="M3,0A3,3 0 1,1 0,-3A3,3 0 0,1 3,0Z" style="opacity: 1; stroke-width: 0px; fill: rgb(97, 107, 250); fill-opacity: 1;"/><path class="point" transform="translate(214.59,149.98)" d="M3,0A3,3 0 1,1 0,-3A3,3 0 0,1 3,0Z" style="opacity: 1; stroke-width: 0px; fill: rgb(97, 107, 250); fill-opacity: 1;"/><path class="point" transform="translate(214.59,149.98)" d="M3,0A3,3 0 1,1 0,-3A3,3 0 0,1 3,0Z" style="opacity: 1; stroke-width: 0px; fill: rgb(97, 107, 250); fill-opacity: 1;"/><path class="point" transform="translate(214.59,149.98)" d="M3,0A3,3 0 1,1 0,-3A3,3 0 0,1 3,0Z" style="opacity: 1; stroke-width: 0px; fill: rgb(97, 107, 250); fill-opacity: 1;"/><path class="point" transform="translate(214.59,149.98)" d="M3,0A3,3 0 1,1 0,-3A3,3 0 0,1 3,0Z" style="opacity: 1; stroke-width: 0px; fill: rgb(97, 107, 250); fill-opacity: 1;"/><path class="point" transform="translate(214.59,149.98)" d="M3,0A3,3 0 1,1 0,-3A3,3 0 0,1 3,0Z" style="opacity: 1; stroke-width: 0px; fill: rgb(97, 107, 250); fill-opacity: 1;"/><path class="point" transform="translate(214.59,148.69)" d="M3,0A3,3 0 1,1 0,-3A3,3 0 0,1 3,0Z" style="opacity: 1; stroke-width: 0px; fill: rgb(97, 107, 250); fill-opacity: 1;"/><path class="point" transform="translate(224.49,148.69)" d="M3,0A3,3 0 1,1 0,-3A3,3 0 0,1 3,0Z" style="opacity: 1; stroke-width: 0px; fill: rgb(97, 107, 250); fill-opacity: 1;"/><path class="point" transform="translate(224.49,148.69)" d="M3,0A3,3 0 1,1 0,-3A3,3 0 0,1 3,0Z" style="opacity: 1; stroke-width: 0px; fill: rgb(97, 107, 250); fill-opacity: 1;"/><path class="point" transform="translate(224.49,147.4)" d="M3,0A3,3 0 1,1 0,-3A3,3 0 0,1 3,0Z" style="opacity: 1; stroke-width: 0px; fill: rgb(97, 107, 250); fill-opacity: 1;"/><path class="point" transform="translate(224.49,147.4)" d="M3,0A3,3 0 1,1 0,-3A3,3 0 0,1 3,0Z" style="opacity: 1; stroke-width: 0px; fill: rgb(97, 107, 250); fill-opacity: 1;"/><path class="point" transform="translate(234.39,147.4)" d="M3,0A3,3 0 1,1 0,-3A3,3 0 0,1 3,0Z" style="opacity: 1; stroke-width: 0px; fill: rgb(97, 107, 250); fill-opacity: 1;"/><path class="point" transform="translate(234.39,147.4)" d="M3,0A3,3 0 1,1 0,-3A3,3 0 0,1 3,0Z" style="opacity: 1; stroke-width: 0px; fill: rgb(97, 107, 250); fill-opacity: 1;"/><path class="point" transform="translate(234.39,147.4)" d="M3,0A3,3 0 1,1 0,-3A3,3 0 0,1 3,0Z" style="opacity: 1; stroke-width: 0px; fill: rgb(97, 107, 250); fill-opacity: 1;"/><path class="point" transform="translate(234.39,147.4)" d="M3,0A3,3 0 1,1 0,-3A3,3 0 0,1 3,0Z" style="opacity: 1; stroke-width: 0px; fill: rgb(97, 107, 250); fill-opacity: 1;"/><path class="point" transform="translate(234.39,147.4)" d="M3,0A3,3 0 1,1 0,-3A3,3 0 0,1 3,0Z" style="opacity: 1; stroke-width: 0px; fill: rgb(97, 107, 250); fill-opacity: 1;"/><path class="point" transform="translate(234.39,147.4)" d="M3,0A3,3 0 1,1 0,-3A3,3 0 0,1 3,0Z" style="opacity: 1; stroke-width: 0px; fill: rgb(97, 107, 250); fill-opacity: 1;"/><path class="point" transform="translate(234.39,146.12)" d="M3,0A3,3 0 1,1 0,-3A3,3 0 0,1 3,0Z" style="opacity: 1; stroke-width: 0px; fill: rgb(97, 107, 250); fill-opacity: 1;"/><path class="point" transform="translate(234.39,146.12)" d="M3,0A3,3 0 1,1 0,-3A3,3 0 0,1 3,0Z" style="opacity: 1; stroke-width: 0px; fill: rgb(97, 107, 250); fill-opacity: 1;"/><path class="point" transform="translate(234.39,144.83)" d="M3,0A3,3 0 1,1 0,-3A3,3 0 0,1 3,0Z" style="opacity: 1; stroke-width: 0px; fill: rgb(97, 107, 250); fill-opacity: 1;"/><path class="point" transform="translate(239.34,144.83)" d="M3,0A3,3 0 1,1 0,-3A3,3 0 0,1 3,0Z" style="opacity: 1; stroke-width: 0px; fill: rgb(97, 107, 250); fill-opacity: 1;"/><path class="point" transform="translate(239.34,144.83)" d="M3,0A3,3 0 1,1 0,-3A3,3 0 0,1 3,0Z" style="opacity: 1; stroke-width: 0px; fill: rgb(97, 107, 250); fill-opacity: 1;"/><path class="point" transform="translate(244.3,144.83)" d="M3,0A3,3 0 1,1 0,-3A3,3 0 0,1 3,0Z" style="opacity: 1; stroke-width: 0px; fill: rgb(97, 107, 250); fill-opacity: 1;"/><path class="point" transform="translate(244.3,144.83)" d="M3,0A3,3 0 1,1 0,-3A3,3 0 0,1 3,0Z" style="opacity: 1; stroke-width: 0px; fill: rgb(97, 107, 250); fill-opacity: 1;"/><path class="point" transform="translate(249.25,144.83)" d="M3,0A3,3 0 1,1 0,-3A3,3 0 0,1 3,0Z" style="opacity: 1; stroke-width: 0px; fill: rgb(97, 107, 250); fill-opacity: 1;"/><path class="point" transform="translate(249.25,144.83)" d="M3,0A3,3 0 1,1 0,-3A3,3 0 0,1 3,0Z" style="opacity: 1; stroke-width: 0px; fill: rgb(97, 107, 250); fill-opacity: 1;"/><path class="point" transform="translate(249.25,143.55)" d="M3,0A3,3 0 1,1 0,-3A3,3 0 0,1 3,0Z" style="opacity: 1; stroke-width: 0px; fill: rgb(97, 107, 250); fill-opacity: 1;"/><path class="point" transform="translate(249.25,143.55)" d="M3,0A3,3 0 1,1 0,-3A3,3 0 0,1 3,0Z" style="opacity: 1; stroke-width: 0px; fill: rgb(97, 107, 250); fill-opacity: 1;"/><path class="point" transform="translate(249.25,142.26)" d="M3,0A3,3 0 1,1 0,-3A3,3 0 0,1 3,0Z" style="opacity: 1; stroke-width: 0px; fill: rgb(97, 107, 250); fill-opacity: 1;"/><path class="point" transform="translate(254.2,142.26)" d="M3,0A3,3 0 1,1 0,-3A3,3 0 0,1 3,0Z" style="opacity: 1; stroke-width: 0px; fill: rgb(97, 107, 250); fill-opacity: 1;"/><path class="point" transform="translate(254.2,142.26)" d="M3,0A3,3 0 1,1 0,-3A3,3 0 0,1 3,0Z" style="opacity: 1; stroke-width: 0px; fill: rgb(97, 107, 250); fill-opacity: 1;"/><path class="point" transform="translate(259.15,142.26)" d="M3,0A3,3 0 1,1 0,-3A3,3 0 0,1 3,0Z" style="opacity: 1; stroke-width: 0px; fill: rgb(97, 107, 250); fill-opacity: 1;"/><path class="point" transform="translate(264.1,142.26)" d="M3,0A3,3 0 1,1 0,-3A3,3 0 0,1 3,0Z" style="opacity: 1; stroke-width: 0px; fill: rgb(97, 107, 250); fill-opacity: 1;"/><path class="point" transform="translate(264.1,142.26)" d="M3,0A3,3 0 1,1 0,-3A3,3 0 0,1 3,0Z" style="opacity: 1; stroke-width: 0px; fill: rgb(97, 107, 250); fill-opacity: 1;"/><path class="point" transform="translate(264.1,142.26)" d="M3,0A3,3 0 1,1 0,-3A3,3 0 0,1 3,0Z" style="opacity: 1; stroke-width: 0px; fill: rgb(97, 107, 250); fill-opacity: 1;"/><path class="point" transform="translate(264.1,140.98)" d="M3,0A3,3 0 1,1 0,-3A3,3 0 0,1 3,0Z" style="opacity: 1; stroke-width: 0px; fill: rgb(97, 107, 250); fill-opacity: 1;"/><path class="point" transform="translate(264.1,140.98)" d="M3,0A3,3 0 1,1 0,-3A3,3 0 0,1 3,0Z" style="opacity: 1; stroke-width: 0px; fill: rgb(97, 107, 250); fill-opacity: 1;"/><path class="point" transform="translate(269.05,140.98)" d="M3,0A3,3 0 1,1 0,-3A3,3 0 0,1 3,0Z" style="opacity: 1; stroke-width: 0px; fill: rgb(97, 107, 250); fill-opacity: 1;"/><path class="point" transform="translate(269.05,140.98)" d="M3,0A3,3 0 1,1 0,-3A3,3 0 0,1 3,0Z" style="opacity: 1; stroke-width: 0px; fill: rgb(97, 107, 250); fill-opacity: 1;"/><path class="point" transform="translate(278.95,140.98)" d="M3,0A3,3 0 1,1 0,-3A3,3 0 0,1 3,0Z" style="opacity: 1; stroke-width: 0px; fill: rgb(97, 107, 250); fill-opacity: 1;"/><path class="point" transform="translate(278.95,139.69)" d="M3,0A3,3 0 1,1 0,-3A3,3 0 0,1 3,0Z" style="opacity: 1; stroke-width: 0px; fill: rgb(97, 107, 250); fill-opacity: 1;"/><path class="point" transform="translate(278.95,139.69)" d="M3,0A3,3 0 1,1 0,-3A3,3 0 0,1 3,0Z" style="opacity: 1; stroke-width: 0px; fill: rgb(97, 107, 250); fill-opacity: 1;"/><path class="point" transform="translate(278.95,138.41)" d="M3,0A3,3 0 1,1 0,-3A3,3 0 0,1 3,0Z" style="opacity: 1; stroke-width: 0px; fill: rgb(97, 107, 250); fill-opacity: 1;"/><path class="point" transform="translate(278.95,138.41)" d="M3,0A3,3 0 1,1 0,-3A3,3 0 0,1 3,0Z" style="opacity: 1; stroke-width: 0px; fill: rgb(97, 107, 250); fill-opacity: 1;"/><path class="point" transform="translate(278.95,138.41)" d="M3,0A3,3 0 1,1 0,-3A3,3 0 0,1 3,0Z" style="opacity: 1; stroke-width: 0px; fill: rgb(97, 107, 250); fill-opacity: 1;"/><path class="point" transform="translate(278.95,138.41)" d="M3,0A3,3 0 1,1 0,-3A3,3 0 0,1 3,0Z" style="opacity: 1; stroke-width: 0px; fill: rgb(97, 107, 250); fill-opacity: 1;"/><path class="point" transform="translate(288.86,137.12)" d="M3,0A3,3 0 1,1 0,-3A3,3 0 0,1 3,0Z" style="opacity: 1; stroke-width: 0px; fill: rgb(97, 107, 250); fill-opacity: 1;"/><path class="point" transform="translate(293.81,135.83)" d="M3,0A3,3 0 1,1 0,-3A3,3 0 0,1 3,0Z" style="opacity: 1; stroke-width: 0px; fill: rgb(97, 107, 250); fill-opacity: 1;"/><path class="point" transform="translate(293.81,135.83)" d="M3,0A3,3 0 1,1 0,-3A3,3 0 0,1 3,0Z" style="opacity: 1; stroke-width: 0px; fill: rgb(97, 107, 250); fill-opacity: 1;"/><path class="point" transform="translate(293.81,135.83)" d="M3,0A3,3 0 1,1 0,-3A3,3 0 0,1 3,0Z" style="opacity: 1; stroke-width: 0px; fill: rgb(97, 107, 250); fill-opacity: 1;"/><path class="point" transform="translate(298.76,135.83)" d="M3,0A3,3 0 1,1 0,-3A3,3 0 0,1 3,0Z" style="opacity: 1; stroke-width: 0px; fill: rgb(97, 107, 250); fill-opacity: 1;"/><path class="point" transform="translate(298.76,134.55)" d="M3,0A3,3 0 1,1 0,-3A3,3 0 0,1 3,0Z" style="opacity: 1; stroke-width: 0px; fill: rgb(97, 107, 250); fill-opacity: 1;"/><path class="point" transform="translate(313.61,133.26)" d="M3,0A3,3 0 1,1 0,-3A3,3 0 0,1 3,0Z" style="opacity: 1; stroke-width: 0px; fill: rgb(97, 107, 250); fill-opacity: 1;"/><path class="point" transform="translate(313.61,133.26)" d="M3,0A3,3 0 1,1 0,-3A3,3 0 0,1 3,0Z" style="opacity: 1; stroke-width: 0px; fill: rgb(97, 107, 250); fill-opacity: 1;"/><path class="point" transform="translate(318.56,133.26)" d="M3,0A3,3 0 1,1 0,-3A3,3 0 0,1 3,0Z" style="opacity: 1; stroke-width: 0px; fill: rgb(97, 107, 250); fill-opacity: 1;"/><path class="point" transform="translate(318.56,131.98)" d="M3,0A3,3 0 1,1 0,-3A3,3 0 0,1 3,0Z" style="opacity: 1; stroke-width: 0px; fill: rgb(97, 107, 250); fill-opacity: 1;"/><path class="point" transform="translate(323.51,130.69)" d="M3,0A3,3 0 1,1 0,-3A3,3 0 0,1 3,0Z" style="opacity: 1; stroke-width: 0px; fill: rgb(97, 107, 250); fill-opacity: 1;"/><path class="point" transform="translate(328.46,130.69)" d="M3,0A3,3 0 1,1 0,-3A3,3 0 0,1 3,0Z" style="opacity: 1; stroke-width: 0px; fill: rgb(97, 107, 250); fill-opacity: 1;"/><path class="point" transform="translate(328.46,130.69)" d="M3,0A3,3 0 1,1 0,-3A3,3 0 0,1 3,0Z" style="opacity: 1; stroke-width: 0px; fill: rgb(97, 107, 250); fill-opacity: 1;"/><path class="point" transform="translate(333.42,128.12)" d="M3,0A3,3 0 1,1 0,-3A3,3 0 0,1 3,0Z" style="opacity: 1; stroke-width: 0px; fill: rgb(97, 107, 250); fill-opacity: 1;"/><path class="point" transform="translate(343.32,128.12)" d="M3,0A3,3 0 1,1 0,-3A3,3 0 0,1 3,0Z" style="opacity: 1; stroke-width: 0px; fill: rgb(97, 107, 250); fill-opacity: 1;"/><path class="point" transform="translate(343.32,126.84)" d="M3,0A3,3 0 1,1 0,-3A3,3 0 0,1 3,0Z" style="opacity: 1; stroke-width: 0px; fill: rgb(97, 107, 250); fill-opacity: 1;"/><path class="point" transform="translate(358.17,126.84)" d="M3,0A3,3 0 1,1 0,-3A3,3 0 0,1 3,0Z" style="opacity: 1; stroke-width: 0px; fill: rgb(97, 107, 250); fill-opacity: 1;"/><path class="point" transform="translate(358.17,125.55)" d="M3,0A3,3 0 1,1 0,-3A3,3 0 0,1 3,0Z" style="opacity: 1; stroke-width: 0px; fill: rgb(97, 107, 250); fill-opacity: 1;"/><path class="point" transform="translate(363.12,124.26)" d="M3,0A3,3 0 1,1 0,-3A3,3 0 0,1 3,0Z" style="opacity: 1; stroke-width: 0px; fill: rgb(97, 107, 250); fill-opacity: 1;"/><path class="point" transform="translate(377.98,122.98)" d="M3,0A3,3 0 1,1 0,-3A3,3 0 0,1 3,0Z" style="opacity: 1; stroke-width: 0px; fill: rgb(97, 107, 250); fill-opacity: 1;"/><path class="point" transform="translate(382.93,121.69)" d="M3,0A3,3 0 1,1 0,-3A3,3 0 0,1 3,0Z" style="opacity: 1; stroke-width: 0px; fill: rgb(97, 107, 250); fill-opacity: 1;"/><path class="point" transform="translate(392.83,119.12)" d="M3,0A3,3 0 1,1 0,-3A3,3 0 0,1 3,0Z" style="opacity: 1; stroke-width: 0px; fill: rgb(97, 107, 250); fill-opacity: 1;"/><path class="point" transform="translate(407.68,116.55)" d="M3,0A3,3 0 1,1 0,-3A3,3 0 0,1 3,0Z" style="opacity: 1; stroke-width: 0px; fill: rgb(97, 107, 250); fill-opacity: 1;"/><path class="point" transform="translate(422.54,113.98)" d="M3,0A3,3 0 1,1 0,-3A3,3 0 0,1 3,0Z" style="opacity: 1; stroke-width: 0px; fill: rgb(97, 107, 250); fill-opacity: 1;"/><path class="point" transform="translate(437.39,110.12)" d="M3,0A3,3 0 1,1 0,-3A3,3 0 0,1 3,0Z" style="opacity: 1; stroke-width: 0px; fill: rgb(97, 107, 250); fill-opacity: 1;"/><path class="point" transform="translate(472.05,104.98)" d="M3,0A3,3 0 1,1 0,-3A3,3 0 0,1 3,0Z" style="opacity: 1; stroke-width: 0px; fill: rgb(97, 107, 250); fill-opacity: 1;"/><path class="point" transform="translate(709.7,71.56)" d="M3,0A3,3 0 1,1 0,-3A3,3 0 0,1 3,0Z" style="opacity: 1; stroke-width: 0px; fill: rgb(97, 107, 250); fill-opacity: 1;"/></g><g class="text"/></g></g></g></g><g class="zerolinelayer-above"/><path class="xlines-above crisp" d="M0,0" style="fill: none;"/><path class="ylines-above crisp" d="M0,0" style="fill: none;"/><g class="overlines-above"/><g class="xaxislayer-above"><g class="xtick"><text text-anchor="middle" x="0" y="366" transform="translate(90.3,0)" style="font-family: 'Playfair Display'; font-size: 18px; fill: rgb(42, 63, 95); fill-opacity: 1; white-space: pre;">0</text></g><g class="xtick"><text text-anchor="middle" x="0" y="366" style="font-family: 'Playfair Display'; font-size: 18px; fill: rgb(42, 63, 95); fill-opacity: 1; white-space: pre;" transform="translate(179.42,0)">5</text></g><g class="xtick"><text text-anchor="middle" x="0" y="366" style="font-family: 'Playfair Display'; font-size: 18px; fill: rgb(42, 63, 95); fill-opacity: 1; white-space: pre;" transform="translate(268.53999999999996,0)">10</text></g><g class="xtick"><text text-anchor="middle" x="0" y="366" style="font-family: 'Playfair Display'; font-size: 18px; fill: rgb(42, 63, 95); fill-opacity: 1; white-space: pre;" transform="translate(357.66,0)">15</text></g><g class="xtick"><text text-anchor="middle" x="0" y="366" style="font-family: 'Playfair Display'; font-size: 18px; fill: rgb(42, 63, 95); fill-opacity: 1; white-space: pre;" transform="translate(446.78,0)">20</text></g><g class="xtick"><text text-anchor="middle" x="0" y="366" style="font-family: 'Playfair Display'; font-size: 18px; fill: rgb(42, 63, 95); fill-opacity: 1; white-space: pre;" transform="translate(535.9,0)">25</text></g><g class="xtick"><text text-anchor="middle" x="0" y="366" style="font-family: 'Playfair Display'; font-size: 18px; fill: rgb(42, 63, 95); fill-opacity: 1; white-space: pre;" transform="translate(625.02,0)">30</text></g><g class="xtick"><text text-anchor="middle" x="0" y="366" style="font-family: 'Playfair Display'; font-size: 18px; fill: rgb(42, 63, 95); fill-opacity: 1; white-space: pre;" transform="translate(714.14,0)">35</text></g></g><g class="yaxislayer-above"><g class="ytick"><text text-anchor="end" x="48" y="6.3" transform="translate(0,333.4)" style="font-family: 'Playfair Display'; font-size: 18px; fill: rgb(42, 63, 95); fill-opacity: 1; white-space: pre;">0</text></g><g class="ytick"><text text-anchor="end" x="48" y="6.3" style="font-family: 'Playfair Display'; font-size: 18px; fill: rgb(42, 63, 95); fill-opacity: 1; white-space: pre;" transform="translate(0,287.12)">10</text></g><g class="ytick"><text text-anchor="end" x="48" y="6.3" style="font-family: 'Playfair Display'; font-size: 18px; fill: rgb(42, 63, 95); fill-opacity: 1; white-space: pre;" transform="translate(0,240.84)">20</text></g><g class="ytick"><text text-anchor="end" x="48" y="6.3" style="font-family: 'Playfair Display'; font-size: 18px; fill: rgb(42, 63, 95); fill-opacity: 1; white-space: pre;" transform="translate(0,194.56)">30</text></g></g><g class="overaxes-above"/></g></g><g class="polarlayer"/><g class="smithlayer"/><g class="ternarylayer"/><g class="geolayer"/><g class="funnelarealayer"/><g class="pielayer"/><g class="iciclelayer"/><g class="treemaplayer"/><g class="sunburstlayer"/><g class="glimages"/><defs id="topdefs-3d7de8"><g class="clips"/></defs><g class="layer-above"><g class="imagelayer"/><g class="shapelayer"/></g><g class="infolayer"><g class="g-gtitle"><text class="gtitle" x="400" y="75" text-anchor="middle" dy="0em" style="opacity: 1; font-family: 'Playfair Display'; font-size: 25px; fill: rgb(42, 63, 95); fill-opacity: 1; white-space: pre;"><tspan class="line" dy="0em" x="400" y="75">QQ-plot entre </tspan><tspan class="line" dy="1.3em" x="400" y="75">les quantiles de la station la plus proche (7052960) et </tspan><tspan class="line" dy="2.6em" x="400" y="75">la station ouverte la plus proche (7053KGR)</tspan></text></g><g class="g-xtitle" transform="translate(0,-4.899999999999977)"><text class="xtitle" x="424.5" y="399.9" text-anchor="middle" style="opacity: 1; font-family: 'Playfair Display'; font-size: 22px; fill: rgb(42, 63, 95); fill-opacity: 1; white-space: pre;">7052960</text></g><g class="g-ytitle" transform="translate(12.2001953125,0)"><text class="ytitle" transform="rotate(-90,7.799999999999997,248.5)" x="7.799999999999997" y="248.5" text-anchor="middle" style="opacity: 1; font-family: 'Playfair Display'; font-size: 22px; fill: rgb(42, 63, 95); fill-opacity: 1; white-space: pre;">7053KGR</text></g></g></svg>