<svg class="main-svg" xmlns="http://www.w3.org/2000/svg" xmlns:xlink="http://www.w3.org/1999/xlink" width="800" height="400" style="" viewBox="0 0 800 400"><rect x="0" y="0" width="800" height="400" style="fill: rgb(255, 255, 255); fill-opacity: 1;"/><defs id="defs-d4b443"><g class="clips"><clipPath id="clipd4b443xyplot" class="plotclip"><rect width="759" height="259"/></clipPath><clipPath class="axesclip" id="clipd4b443x"><rect x="41" y="0" width="759" height="400"/></clipPath><clipPath class="axesclip" id="clipd4b443y"><rect x="0" y="100" width="800" height="259"/></clipPath><clipPath class="axesclip" id="clipd4b443xy"><rect x="41" y="100" width="759" height="259"/></clipPath></g><g class="gradients"/><g class="patterns"/></defs><g class="bglayer"><rect class="bg" x="41" y="100" width="759" height="259" style="fill: rgb(229, 236, 246); fill-opacity: 1; stroke-width: 0;"/></g><g class="layer-below"><g class="imagelayer"/><g class="shapelayer"/></g><g class="cartesianlayer"><g class="subplot xy"><g class="layer-subplot"><g class="shapelayer"/><g class="imagelayer"/></g><g class="minor-gridlayer"><g class="x"/><g class="y"/></g><g class="gridlayer"><g class="x"><path class="xgrid crisp" transform="translate(172.78,0)" d="M0,100v259" style="stroke: rgb(255, 255, 255); stroke-opacity: 1; stroke-width: 1px;"/><path class="xgrid crisp" transform="translate(262.86,0)" d="M0,100v259" style="stroke: rgb(255, 255, 255); stroke-opacity: 1; stroke-width: 1px;"/><path class="xgrid crisp" transform="translate(352.94,0)" d="M0,100v259" style="stroke: rgb(255, 255, 255); stroke-opacity: 1; stroke-width: 1px;"/><path class="xgrid crisp" transform="translate(443.02,0)" d="M0,100v259" style="stroke: rgb(255, 255, 255); stroke-opacity: 1; stroke-width: 1px;"/><path class="xgrid crisp" transform="translate(533.1,0)" d="M0,100v259" style="stroke: rgb(255, 255, 255); stroke-opacity: 1; stroke-width: 1px;"/><path class="xgrid crisp" transform="translate(623.18,0)" d="M0,100v259" style="stroke: rgb(255, 255, 255); stroke-opacity: 1; stroke-width: 1px;"/><path class="xgrid crisp" transform="translate(713.26,0)" d="M0,100v259" style="stroke: rgb(255, 255, 255); stroke-opacity: 1; stroke-width: 1px;"/></g><g class="y"><path class="ygrid crisp" transform="translate(0,281.14)" d="M41,0h759" style="stroke: rgb(255, 255, 255); stroke-opacity: 1; stroke-width: 1px;"/><path class="ygrid crisp" transform="translate(0,219.98000000000002)" d="M41,0h759" style="stroke: rgb(255, 255, 255); stroke-opacity: 1; stroke-width: 1px;"/><path class="ygrid crisp" transform="translate(0,158.82)" d="M41,0h759" style="stroke: rgb(255, 255, 255); stroke-opacity: 1; stroke-width: 1px;"/></g></g><g class="zerolinelayer"><path class="xzl zl crisp" transform="translate(82.7,0)" d="M0,100v259" style="stroke: rgb(255, 255, 255); stroke-opacity: 1; stroke-width: 2px;"/><path class="yzl zl crisp" transform="translate(0,342.3)" d="M41,0h759" style="stroke: rgb(255, 255, 255); stroke-opacity: 1; stroke-width: 2px;"/></g><g class="layer-between"><g class="shapelayer"/><g class="imagelayer"/></g><path class="xlines-below"/><path class="ylines-below"/><g class="overlines-below"/><g class="xaxislayer-below"/><g class="yaxislayer-below"/><g class="overaxes-below"/><g class="overplot"><g class="xy" transform="translate(41,100)" clip-path="url(#clipd4b443xyplot)"><g class="scatterlayer mlayer"><g class="trace scatter trace69ed53" style="stroke-miterlimit: 2; opacity: 1;"><g class="fills"/><g class="errorbars"/><g class="lines"><path class="js-line" d="M41.7,242.3L717.3,12.95" style="vector-effect: none; fill: none; stroke: rgb(97, 107, 250); stroke-opacity: 1; stroke-width: 2px; opacity: 1;"/></g><g class="points"/><g class="text"/></g><g class="trace scatter tracec3c8fa" style="stroke-miterlimit: 2; opacity: 1;"><g class="fills"/><g class="errorbars"/><g class="lines"/><g class="points"><path class="point" transform="translate(41.7,242.3)" d="M3,0A3,3 0 1,1 0,-3A3,3 0 0,1 3,0Z" style="opacity: 1; stroke-width: 0px; fill: rgb(97, 107, 250); fill-opacity: 1;"/><path class="point" transform="translate(41.7,242.3)" d="M3,0A3,3 0 1,1 0,-3A3,3 0 0,1 3,0Z" style="opacity: 1; stroke-width: 0px; fill: rgb(97, 107, 250); fill-opacity: 1;"/><path class="point" transform="translate(56.71,242.3)" d="M3,0A3,3 0 1,1 0,-3A3,3 0 0,1 3,0Z" style="opacity: 1; stroke-width: 0px; fill: rgb(97, 107, 250); fill-opacity: 1;"/><path class="point" transform="translate(61.72,237.2)" d="M3,0A3,3 0 1,1 0,-3A3,3 0 0,1 3,0Z" style="opacity: 1; stroke-width: 0px; fill: rgb(97, 107, 250); fill-opacity: 1;"/><path class="point" transform="translate(71.73,235.5)" d="M3,0A3,3 0 1,1 0,-3A3,3 0 0,1 3,0Z" style="opacity: 1; stroke-width: 0px; fill: rgb(97, 107, 250); fill-opacity: 1;"/><path class="point" transform="translate(71.73,235.5)" d="M3,0A3,3 0 1,1 0,-3A3,3 0 0,1 3,0Z" style="opacity: 1; stroke-width: 0px; fill: rgb(97, 107, 250); fill-opacity: 1;"/><path class="point" transform="translate(71.73,235.5)" d="M3,0A3,3 0 1,1 0,-3A3,3 0 0,1 3,0Z" style="opacity: 1; stroke-width: 0px; fill: rgb(97, 107, 250); fill-opacity: 1;"/><path class="point" transform="translate(71.73,232.11)" d="M3,0A3,3 0 1,1 0,-3A3,3 0 0,1 3,0Z" style="opacity: 1; stroke-width: 0px; fill: rgb(97, 107, 250); fill-opacity: 1;"/><path class="point" transform="translate(76.73,232.11)" d="M3,0A3,3 0 1,1 0,-3A3,3 0 0,1 3,0Z" style="opacity: 1; stroke-width: 0px; fill: rgb(97, 107, 250); fill-opacity: 1;"/><path class="point" transform="translate(81.74,232.11)" d="M3,0A3,3 0 1,1 0,-3A3,3 0 0,1 3,0Z" style="opacity: 1; stroke-width: 0px; fill: rgb(97, 107, 250); fill-opacity: 1;"/><path class="point" transform="translate(86.74,232.11)" d="M3,0A3,3 0 1,1 0,-3A3,3 0 0,1 3,0Z" style="opacity: 1; stroke-width: 0px; fill: rgb(97, 107, 250); fill-opacity: 1;"/><path class="point" transform="translate(86.74,232.11)" d="M3,0A3,3 0 1,1 0,-3A3,3 0 0,1 3,0Z" style="opacity: 1; stroke-width: 0px; fill: rgb(97, 107, 250); fill-opacity: 1;"/><path class="point" transform="translate(91.74,230.41)" d="M3,0A3,3 0 1,1 0,-3A3,3 0 0,1 3,0Z" style="opacity: 1; stroke-width: 0px; fill: rgb(97, 107, 250); fill-opacity: 1;"/><path class="point" transform="translate(91.74,230.41)" d="M3,0A3,3 0 1,1 0,-3A3,3 0 0,1 3,0Z" style="opacity: 1; stroke-width: 0px; fill: rgb(97, 107, 250); fill-opacity: 1;"/><path class="point" transform="translate(91.74,230.41)" d="M3,0A3,3 0 1,1 0,-3A3,3 0 0,1 3,0Z" style="opacity: 1; stroke-width: 0px; fill: rgb(97, 107, 250); fill-opacity: 1;"/><path class="point" transform="translate(91.74,230.41)" d="M3,0A3,3 0 1,1 0,-3A3,3 0 0,1 3,0Z" style="opacity: 1; stroke-width: 0px; fill: rgb(97, 107, 250); fill-opacity: 1;"/><path class="point" transform="translate(91.74,230.41)" d="M3,0A3,3 0 1,1 0,-3A3,3 0 0,1 3,0Z" style="opacity: 1; stroke-width: 0px; fill: rgb(97, 107, 250); fill-opacity: 1;"/><path class="point" transform="translate(91.74,228.71)" d="M3,0A3,3 0 1,1 0,-3A3,3 0 0,1 3,0Z" style="opacity: 1; stroke-width: 0px; fill: rgb(97, 107, 250); fill-opacity: 1;"/><path class="point" transform="translate(96.75,228.71)" d="M3,0A3,3 0 1,1 0,-3A3,3 0 0,1 3,0Z" style="opacity: 1; stroke-width: 0px; fill: rgb(97, 107, 250); fill-opacity: 1;"/><path class="point" transform="translate(96.75,227.01)" d="M3,0A3,3 0 1,1 0,-3A3,3 0 0,1 3,0Z" style="opacity: 1; stroke-width: 0px; fill: rgb(97, 107, 250); fill-opacity: 1;"/><path class="point" transform="translate(106.76,227.01)" d="M3,0A3,3 0 1,1 0,-3A3,3 0 0,1 3,0Z" style="opacity: 1; stroke-width: 0px; fill: rgb(97, 107, 250); fill-opacity: 1;"/><path class="point" transform="translate(106.76,227.01)" d="M3,0A3,3 0 1,1 0,-3A3,3 0 0,1 3,0Z" style="opacity: 1; stroke-width: 0px; fill: rgb(97, 107, 250); fill-opacity: 1;"/><path class="point" transform="translate(106.76,227.01)" d="M3,0A3,3 0 1,1 0,-3A3,3 0 0,1 3,0Z" style="opacity: 1; stroke-width: 0px; fill: rgb(97, 107, 250); fill-opacity: 1;"/><path class="point" transform="translate(106.76,227.01)" d="M3,0A3,3 0 1,1 0,-3A3,3 0 0,1 3,0Z" style="opacity: 1; stroke-width: 0px; fill: rgb(97, 107, 250); fill-opacity: 1;"/><path class="point" transform="translate(106.76,227.01)" d="M3,0A3,3 0 1,1 0,-3A3,3 0 0,1 3,0Z" style="opacity: 1; stroke-width: 0px; fill: rgb(97, 107, 250); fill-opacity: 1;"/><path class="point" transform="translate(106.76,227.01)" d="M3,0A3,3 0 1,1 0,-3A3,3 0 0,1 3,0Z" style="opacity: 1; stroke-width: 0px; fill: rgb(97, 107, 250); fill-opacity: 1;"/><path class="point" transform="translate(106.76,225.31)" d="M3,0A3,3 0 1,1 0,-3A3,3 0 0,1 3,0Z" style="opacity: 1; stroke-width: 0px; fill: rgb(97, 107, 250); fill-opacity: 1;"/><path class="point" transform="translate(106.76,225.31)" d="M3,0A3,3 0 1,1 0,-3A3,3 0 0,1 3,0Z" style="opacity: 1; stroke-width: 0px; fill: rgb(97, 107, 250); fill-opacity: 1;"/><path class="point" transform="translate(106.76,223.61)" d="M3,0A3,3 0 1,1 0,-3A3,3 0 0,1 3,0Z" style="opacity: 1; stroke-width: 0px; fill: rgb(97, 107, 250); fill-opacity: 1;"/><path class="point" transform="translate(116.77,223.61)" d="M3,0A3,3 0 1,1 0,-3A3,3 0 0,1 3,0Z" style="opacity: 1; stroke-width: 0px; fill: rgb(97, 107, 250); fill-opacity: 1;"/><path class="point" transform="translate(116.77,223.61)" d="M3,0A3,3 0 1,1 0,-3A3,3 0 0,1 3,0Z" style="opacity: 1; stroke-width: 0px; fill: rgb(97, 107, 250); fill-opacity: 1;"/><path class="point" transform="translate(116.77,223.61)" d="M3,0A3,3 0 1,1 0,-3A3,3 0 0,1 3,0Z" style="opacity: 1; stroke-width: 0px; fill: rgb(97, 107, 250); fill-opacity: 1;"/><path class="point" transform="translate(121.77,223.61)" d="M3,0A3,3 0 1,1 0,-3A3,3 0 0,1 3,0Z" style="opacity: 1; stroke-width: 0px; fill: rgb(97, 107, 250); fill-opacity: 1;"/><path class="point" transform="translate(121.77,223.61)" d="M3,0A3,3 0 1,1 0,-3A3,3 0 0,1 3,0Z" style="opacity: 1; stroke-width: 0px; fill: rgb(97, 107, 250); fill-opacity: 1;"/><path class="point" transform="translate(121.77,223.61)" d="M3,0A3,3 0 1,1 0,-3A3,3 0 0,1 3,0Z" style="opacity: 1; stroke-width: 0px; fill: rgb(97, 107, 250); fill-opacity: 1;"/><path class="point" transform="translate(121.77,223.61)" d="M3,0A3,3 0 1,1 0,-3A3,3 0 0,1 3,0Z" style="opacity: 1; stroke-width: 0px; fill: rgb(97, 107, 250); fill-opacity: 1;"/><path class="point" transform="translate(121.77,223.61)" d="M3,0A3,3 0 1,1 0,-3A3,3 0 0,1 3,0Z" style="opacity: 1; stroke-width: 0px; fill: rgb(97, 107, 250); fill-opacity: 1;"/><path class="point" transform="translate(121.77,221.91)" d="M3,0A3,3 0 1,1 0,-3A3,3 0 0,1 3,0Z" style="opacity: 1; stroke-width: 0px; fill: rgb(97, 107, 250); fill-opacity: 1;"/><path class="point" transform="translate(121.77,221.91)" d="M3,0A3,3 0 1,1 0,-3A3,3 0 0,1 3,0Z" style="opacity: 1; stroke-width: 0px; fill: rgb(97, 107, 250); fill-opacity: 1;"/><path class="point" transform="translate(121.77,220.21)" d="M3,0A3,3 0 1,1 0,-3A3,3 0 0,1 3,0Z" style="opacity: 1; stroke-width: 0px; fill: rgb(97, 107, 250); fill-opacity: 1;"/><path class="point" transform="translate(121.77,220.21)" d="M3,0A3,3 0 1,1 0,-3A3,3 0 0,1 3,0Z" style="opacity: 1; stroke-width: 0px; fill: rgb(97, 107, 250); fill-opacity: 1;"/><path class="point" transform="translate(121.77,220.21)" d="M3,0A3,3 0 1,1 0,-3A3,3 0 0,1 3,0Z" style="opacity: 1; stroke-width: 0px; fill: rgb(97, 107, 250); fill-opacity: 1;"/><path class="point" transform="translate(126.78,220.21)" d="M3,0A3,3 0 1,1 0,-3A3,3 0 0,1 3,0Z" style="opacity: 1; stroke-width: 0px; fill: rgb(97, 107, 250); fill-opacity: 1;"/><path class="point" transform="translate(126.78,220.21)" d="M3,0A3,3 0 1,1 0,-3A3,3 0 0,1 3,0Z" style="opacity: 1; stroke-width: 0px; fill: rgb(97, 107, 250); fill-opacity: 1;"/><path class="point" transform="translate(126.78,220.21)" d="M3,0A3,3 0 1,1 0,-3A3,3 0 0,1 3,0Z" style="opacity: 1; stroke-width: 0px; fill: rgb(97, 107, 250); fill-opacity: 1;"/><path class="point" transform="translate(136.78,220.21)" d="M3,0A3,3 0 1,1 0,-3A3,3 0 0,1 3,0Z" style="opacity: 1; stroke-width: 0px; fill: rgb(97, 107, 250); fill-opacity: 1;"/><path class="point" transform="translate(136.78,220.21)" d="M3,0A3,3 0 1,1 0,-3A3,3 0 0,1 3,0Z" style="opacity: 1; stroke-width: 0px; fill: rgb(97, 107, 250); fill-opacity: 1;"/><path class="point" transform="translate(136.78,220.21)" d="M3,0A3,3 0 1,1 0,-3A3,3 0 0,1 3,0Z" style="opacity: 1; stroke-width: 0px; fill: rgb(97, 107, 250); fill-opacity: 1;"/><path class="point" transform="translate(136.78,218.52)" d="M3,0A3,3 0 1,1 0,-3A3,3 0 0,1 3,0Z" style="opacity: 1; stroke-width: 0px; fill: rgb(97, 107, 250); fill-opacity: 1;"/><path class="point" transform="translate(136.78,218.52)" d="M3,0A3,3 0 1,1 0,-3A3,3 0 0,1 3,0Z" style="opacity: 1; stroke-width: 0px; fill: rgb(97, 107, 250); fill-opacity: 1;"/><path class="point" transform="translate(136.78,218.52)" d="M3,0A3,3 0 1,1 0,-3A3,3 0 0,1 3,0Z" style="opacity: 1; stroke-width: 0px; fill: rgb(97, 107, 250); fill-opacity: 1;"/><path class="point" transform="translate(136.78,216.82)" d="M3,0A3,3 0 1,1 0,-3A3,3 0 0,1 3,0Z" style="opacity: 1; stroke-width: 0px; fill: rgb(97, 107, 250); fill-opacity: 1;"/><path class="point" transform="translate(136.78,216.82)" d="M3,0A3,3 0 1,1 0,-3A3,3 0 0,1 3,0Z" style="opacity: 1; stroke-width: 0px; fill: rgb(97, 107, 250); fill-opacity: 1;"/><path class="point" transform="translate(136.78,216.82)" d="M3,0A3,3 0 1,1 0,-3A3,3 0 0,1 3,0Z" style="opacity: 1; stroke-width: 0px; fill: rgb(97, 107, 250); fill-opacity: 1;"/><path class="point" transform="translate(136.78,216.82)" d="M3,0A3,3 0 1,1 0,-3A3,3 0 0,1 3,0Z" style="opacity: 1; stroke-width: 0px; fill: rgb(97, 107, 250); fill-opacity: 1;"/><path class="point" transform="translate(136.78,216.82)" d="M3,0A3,3 0 1,1 0,-3A3,3 0 0,1 3,0Z" style="opacity: 1; stroke-width: 0px; fill: rgb(97, 107, 250); fill-opacity: 1;"/><path class="point" transform="translate(136.78,216.82)" d="M3,0A3,3 0 1,1 0,-3A3,3 0 0,1 3,0Z" style="opacity: 1; stroke-width: 0px; fill: rgb(97, 107, 250); fill-opacity: 1;"/><path class="point" transform="translate(136.78,216.82)" d="M3,0A3,3 0 1,1 0,-3A3,3 0 0,1 3,0Z" style="opacity: 1; stroke-width: 0px; fill: rgb(97, 107, 250); fill-opacity: 1;"/><path class="point" transform="translate(136.78,216.82)" d="M3,0A3,3 0 1,1 0,-3A3,3 0 0,1 3,0Z" style="opacity: 1; stroke-width: 0px; fill: rgb(97, 107, 250); fill-opacity: 1;"/><path class="point" transform="translate(136.78,216.82)" d="M3,0A3,3 0 1,1 0,-3A3,3 0 0,1 3,0Z" style="opacity: 1; stroke-width: 0px; fill: rgb(97, 107, 250); fill-opacity: 1;"/><path class="point" transform="translate(141.79,215.12)" d="M3,0A3,3 0 1,1 0,-3A3,3 0 0,1 3,0Z" style="opacity: 1; stroke-width: 0px; fill: rgb(97, 107, 250); fill-opacity: 1;"/><path class="point" transform="translate(141.79,215.12)" d="M3,0A3,3 0 1,1 0,-3A3,3 0 0,1 3,0Z" style="opacity: 1; stroke-width: 0px; fill: rgb(97, 107, 250); fill-opacity: 1;"/><path class="point" transform="translate(151.8,215.12)" d="M3,0A3,3 0 1,1 0,-3A3,3 0 0,1 3,0Z" style="opacity: 1; stroke-width: 0px; fill: rgb(97, 107, 250); fill-opacity: 1;"/><path class="point" transform="translate(151.8,213.42)" d="M3,0A3,3 0 1,1 0,-3A3,3 0 0,1 3,0Z" style="opacity: 1; stroke-width: 0px; fill: rgb(97, 107, 250); fill-opacity: 1;"/><path class="point" transform="translate(151.8,213.42)" d="M3,0A3,3 0 1,1 0,-3A3,3 0 0,1 3,0Z" style="opacity: 1; stroke-width: 0px; fill: rgb(97, 107, 250); fill-opacity: 1;"/><path class="point" transform="translate(156.8,213.42)" d="M3,0A3,3 0 1,1 0,-3A3,3 0 0,1 3,0Z" style="opacity: 1; stroke-width: 0px; fill: rgb(97, 107, 250); fill-opacity: 1;"/><path class="point" transform="translate(156.8,213.42)" d="M3,0A3,3 0 1,1 0,-3A3,3 0 0,1 3,0Z" style="opacity: 1; stroke-width: 0px; fill: rgb(97, 107, 250); fill-opacity: 1;"/><path class="point" transform="translate(156.8,213.42)" d="M3,0A3,3 0 1,1 0,-3A3,3 0 0,1 3,0Z" style="opacity: 1; stroke-width: 0px; fill: rgb(97, 107, 250); fill-opacity: 1;"/><path class="point" transform="translate(156.8,213.42)" d="M3,0A3,3 0 1,1 0,-3A3,3 0 0,1 3,0Z" style="opacity: 1; stroke-width: 0px; fill: rgb(97, 107, 250); fill-opacity: 1;"/><path class="point" transform="translate(156.8,213.42)" d="M3,0A3,3 0 1,1 0,-3A3,3 0 0,1 3,0Z" style="opacity: 1; stroke-width: 0px; fill: rgb(97, 107, 250); fill-opacity: 1;"/><path class="point" transform="translate(156.8,213.42)" d="M3,0A3,3 0 1,1 0,-3A3,3 0 0,1 3,0Z" style="opacity: 1; stroke-width: 0px; fill: rgb(97, 107, 250); fill-opacity: 1;"/><path class="point" transform="translate(156.8,213.42)" d="M3,0A3,3 0 1,1 0,-3A3,3 0 0,1 3,0Z" style="opacity: 1; stroke-width: 0px; fill: rgb(97, 107, 250); fill-opacity: 1;"/><path class="point" transform="translate(156.8,213.42)" d="M3,0A3,3 0 1,1 0,-3A3,3 0 0,1 3,0Z" style="opacity: 1; stroke-width: 0px; fill: rgb(97, 107, 250); fill-opacity: 1;"/><path class="point" transform="translate(156.8,211.72)" d="M3,0A3,3 0 1,1 0,-3A3,3 0 0,1 3,0Z" style="opacity: 1; stroke-width: 0px; fill: rgb(97, 107, 250); fill-opacity: 1;"/><path class="point" transform="translate(156.8,211.72)" d="M3,0A3,3 0 1,1 0,-3A3,3 0 0,1 3,0Z" style="opacity: 1; stroke-width: 0px; fill: rgb(97, 107, 250); fill-opacity: 1;"/><path class="point" transform="translate(161.81,211.72)" d="M3,0A3,3 0 1,1 0,-3A3,3 0 0,1 3,0Z" style="opacity: 1; stroke-width: 0px; fill: rgb(97, 107, 250); fill-opacity: 1;"/><path class="point" transform="translate(161.81,210.02)" d="M3,0A3,3 0 1,1 0,-3A3,3 0 0,1 3,0Z" style="opacity: 1; stroke-width: 0px; fill: rgb(97, 107, 250); fill-opacity: 1;"/><path class="point" transform="translate(161.81,210.02)" d="M3,0A3,3 0 1,1 0,-3A3,3 0 0,1 3,0Z" style="opacity: 1; stroke-width: 0px; fill: rgb(97, 107, 250); fill-opacity: 1;"/><path class="point" transform="translate(161.81,210.02)" d="M3,0A3,3 0 1,1 0,-3A3,3 0 0,1 3,0Z" style="opacity: 1; stroke-width: 0px; fill: rgb(97, 107, 250); fill-opacity: 1;"/><path class="point" transform="translate(171.82,210.02)" d="M3,0A3,3 0 1,1 0,-3A3,3 0 0,1 3,0Z" style="opacity: 1; stroke-width: 0px; fill: rgb(97, 107, 250); fill-opacity: 1;"/><path class="point" transform="translate(171.82,210.02)" d="M3,0A3,3 0 1,1 0,-3A3,3 0 0,1 3,0Z" style="opacity: 1; stroke-width: 0px; fill: rgb(97, 107, 250); fill-opacity: 1;"/><path class="point" transform="translate(171.82,210.02)" d="M3,0A3,3 0 1,1 0,-3A3,3 0 0,1 3,0Z" style="opacity: 1; stroke-width: 0px; fill: rgb(97, 107, 250); fill-opacity: 1;"/><path class="point" transform="translate(171.82,210.02)" d="M3,0A3,3 0 1,1 0,-3A3,3 0 0,1 3,0Z" style="opacity: 1; stroke-width: 0px; fill: rgb(97, 107, 250); fill-opacity: 1;"/><path class="point" transform="translate(171.82,210.02)" d="M3,0A3,3 0 1,1 0,-3A3,3 0 0,1 3,0Z" style="opacity: 1; stroke-width: 0px; fill: rgb(97, 107, 250); fill-opacity: 1;"/><path class="point" transform="translate(171.82,210.02)" d="M3,0A3,3 0 1,1 0,-3A3,3 0 0,1 3,0Z" style="opacity: 1; stroke-width: 0px; fill: rgb(97, 107, 250); fill-opacity: 1;"/><path class="point" transform="translate(171.82,210.02)" d="M3,0A3,3 0 1,1 0,-3A3,3 0 0,1 3,0Z" style="opacity: 1; stroke-width: 0px; fill: rgb(97, 107, 250); fill-opacity: 1;"/><path class="point" transform="translate(171.82,210.02)" d="M3,0A3,3 0 1,1 0,-3A3,3 0 0,1 3,0Z" style="opacity: 1; stroke-width: 0px; fill: rgb(97, 107, 250); fill-opacity: 1;"/><path class="point" transform="translate(171.82,208.32)" d="M3,0A3,3 0 1,1 0,-3A3,3 0 0,1 3,0Z" style="opacity: 1; stroke-width: 0px; fill: rgb(97, 107, 250); fill-opacity: 1;"/><path class="point" transform="translate(171.82,208.32)" d="M3,0A3,3 0 1,1 0,-3A3,3 0 0,1 3,0Z" style="opacity: 1; stroke-width: 0px; fill: rgb(97, 107, 250); fill-opacity: 1;"/><path class="point" transform="translate(171.82,208.32)" d="M3,0A3,3 0 1,1 0,-3A3,3 0 0,1 3,0Z" style="opacity: 1; stroke-width: 0px; fill: rgb(97, 107, 250); fill-opacity: 1;"/><path class="point" transform="translate(171.82,208.32)" d="M3,0A3,3 0 1,1 0,-3A3,3 0 0,1 3,0Z" style="opacity: 1; stroke-width: 0px; fill: rgb(97, 107, 250); fill-opacity: 1;"/><path class="point" transform="translate(171.82,208.32)" d="M3,0A3,3 0 1,1 0,-3A3,3 0 0,1 3,0Z" style="opacity: 1; stroke-width: 0px; fill: rgb(97, 107, 250); fill-opacity: 1;"/><path class="point" transform="translate(181.82,208.32)" d="M3,0A3,3 0 1,1 0,-3A3,3 0 0,1 3,0Z" style="opacity: 1; stroke-width: 0px; fill: rgb(97, 107, 250); fill-opacity: 1;"/><path class="point" transform="translate(181.82,208.32)" d="M3,0A3,3 0 1,1 0,-3A3,3 0 0,1 3,0Z" style="opacity: 1; stroke-width: 0px; fill: rgb(97, 107, 250); fill-opacity: 1;"/><path class="point" transform="translate(181.82,208.32)" d="M3,0A3,3 0 1,1 0,-3A3,3 0 0,1 3,0Z" style="opacity: 1; stroke-width: 0px; fill: rgb(97, 107, 250); fill-opacity: 1;"/><path class="point" transform="translate(186.83,208.32)" d="M3,0A3,3 0 1,1 0,-3A3,3 0 0,1 3,0Z" style="opacity: 1; stroke-width: 0px; fill: rgb(97, 107, 250); fill-opacity: 1;"/><path class="point" transform="translate(186.83,208.32)" d="M3,0A3,3 0 1,1 0,-3A3,3 0 0,1 3,0Z" style="opacity: 1; stroke-width: 0px; fill: rgb(97, 107, 250); fill-opacity: 1;"/><path class="point" transform="translate(186.83,206.62)" d="M3,0A3,3 0 1,1 0,-3A3,3 0 0,1 3,0Z" style="opacity: 1; stroke-width: 0px; fill: rgb(97, 107, 250); fill-opacity: 1;"/><path class="point" transform="translate(186.83,206.62)" d="M3,0A3,3 0 1,1 0,-3A3,3 0 0,1 3,0Z" style="opacity: 1; stroke-width: 0px; fill: rgb(97, 107, 250); fill-opacity: 1;"/><path class="point" transform="translate(186.83,206.62)" d="M3,0A3,3 0 1,1 0,-3A3,3 0 0,1 3,0Z" style="opacity: 1; stroke-width: 0px; fill: rgb(97, 107, 250); fill-opacity: 1;"/><path class="point" transform="translate(186.83,204.92)" d="M3,0A3,3 0 1,1 0,-3A3,3 0 0,1 3,0Z" style="opacity: 1; stroke-width: 0px; fill: rgb(97, 107, 250); fill-opacity: 1;"/><path class="point" transform="translate(186.83,204.92)" d="M3,0A3,3 0 1,1 0,-3A3,3 0 0,1 3,0Z" style="opacity: 1; stroke-width: 0px; fill: rgb(97, 107, 250); fill-opacity: 1;"/><path class="point" transform="translate(186.83,204.92)" d="M3,0A3,3 0 1,1 0,-3A3,3 0 0,1 3,0Z" style="opacity: 1; stroke-width: 0px; fill: rgb(97, 107, 250); fill-opacity: 1;"/><path class="point" transform="translate(186.83,204.92)" d="M3,0A3,3 0 1,1 0,-3A3,3 0 0,1 3,0Z" style="opacity: 1; stroke-width: 0px; fill: rgb(97, 107, 250); fill-opacity: 1;"/><path class="point" transform="translate(186.83,204.92)" d="M3,0A3,3 0 1,1 0,-3A3,3 0 0,1 3,0Z" style="opacity: 1; stroke-width: 0px; fill: rgb(97, 107, 250); fill-opacity: 1;"/><path class="point" transform="translate(191.83,204.92)" d="M3,0A3,3 0 1,1 0,-3A3,3 0 0,1 3,0Z" style="opacity: 1; stroke-width: 0px; fill: rgb(97, 107, 250); fill-opacity: 1;"/><path class="point" transform="translate(191.83,204.92)" d="M3,0A3,3 0 1,1 0,-3A3,3 0 0,1 3,0Z" style="opacity: 1; stroke-width: 0px; fill: rgb(97, 107, 250); fill-opacity: 1;"/><path class="point" transform="translate(191.83,204.92)" d="M3,0A3,3 0 1,1 0,-3A3,3 0 0,1 3,0Z" style="opacity: 1; stroke-width: 0px; fill: rgb(97, 107, 250); fill-opacity: 1;"/><path class="point" transform="translate(196.84,204.92)" d="M3,0A3,3 0 1,1 0,-3A3,3 0 0,1 3,0Z" style="opacity: 1; stroke-width: 0px; fill: rgb(97, 107, 250); fill-opacity: 1;"/><path class="point" transform="translate(196.84,204.92)" d="M3,0A3,3 0 1,1 0,-3A3,3 0 0,1 3,0Z" style="opacity: 1; stroke-width: 0px; fill: rgb(97, 107, 250); fill-opacity: 1;"/><path class="point" transform="translate(201.84,203.23)" d="M3,0A3,3 0 1,1 0,-3A3,3 0 0,1 3,0Z" style="opacity: 1; stroke-width: 0px; fill: rgb(97, 107, 250); fill-opacity: 1;"/><path class="point" transform="translate(201.84,203.23)" d="M3,0A3,3 0 1,1 0,-3A3,3 0 0,1 3,0Z" style="opacity: 1; stroke-width: 0px; fill: rgb(97, 107, 250); fill-opacity: 1;"/><path class="point" transform="translate(201.84,201.53)" d="M3,0A3,3 0 1,1 0,-3A3,3 0 0,1 3,0Z" style="opacity: 1; stroke-width: 0px; fill: rgb(97, 107, 250); fill-opacity: 1;"/><path class="point" transform="translate(201.84,201.53)" d="M3,0A3,3 0 1,1 0,-3A3,3 0 0,1 3,0Z" style="opacity: 1; stroke-width: 0px; fill: rgb(97, 107, 250); fill-opacity: 1;"/><path class="point" transform="translate(201.84,201.53)" d="M3,0A3,3 0 1,1 0,-3A3,3 0 0,1 3,0Z" style="opacity: 1; stroke-width: 0px; fill: rgb(97, 107, 250); fill-opacity: 1;"/><path class="point" transform="translate(201.84,201.53)" d="M3,0A3,3 0 1,1 0,-3A3,3 0 0,1 3,0Z" style="opacity: 1; stroke-width: 0px; fill: rgb(97, 107, 250); fill-opacity: 1;"/><path class="point" transform="translate(201.84,201.53)" d="M3,0A3,3 0 1,1 0,-3A3,3 0 0,1 3,0Z" style="opacity: 1; stroke-width: 0px; fill: rgb(97, 107, 250); fill-opacity: 1;"/><path class="point" transform="translate(201.84,201.53)" d="M3,0A3,3 0 1,1 0,-3A3,3 0 0,1 3,0Z" style="opacity: 1; stroke-width: 0px; fill: rgb(97, 107, 250); fill-opacity: 1;"/><path class="point" transform="translate(201.84,201.53)" d="M3,0A3,3 0 1,1 0,-3A3,3 0 0,1 3,0Z" style="opacity: 1; stroke-width: 0px; fill: rgb(97, 107, 250); fill-opacity: 1;"/><path class="point" transform="translate(201.84,201.53)" d="M3,0A3,3 0 1,1 0,-3A3,3 0 0,1 3,0Z" style="opacity: 1; stroke-width: 0px; fill: rgb(97, 107, 250); fill-opacity: 1;"/><path class="point" transform="translate(201.84,201.53)" d="M3,0A3,3 0 1,1 0,-3A3,3 0 0,1 3,0Z" style="opacity: 1; stroke-width: 0px; fill: rgb(97, 107, 250); fill-opacity: 1;"/><path class="point" transform="translate(206.85,201.53)" d="M3,0A3,3 0 1,1 0,-3A3,3 0 0,1 3,0Z" style="opacity: 1; stroke-width: 0px; fill: rgb(97, 107, 250); fill-opacity: 1;"/><path class="point" transform="translate(206.85,199.83)" d="M3,0A3,3 0 1,1 0,-3A3,3 0 0,1 3,0Z" style="opacity: 1; stroke-width: 0px; fill: rgb(97, 107, 250); fill-opacity: 1;"/><path class="point" transform="translate(206.85,199.83)" d="M3,0A3,3 0 1,1 0,-3A3,3 0 0,1 3,0Z" style="opacity: 1; stroke-width: 0px; fill: rgb(97, 107, 250); fill-opacity: 1;"/><path class="point" transform="translate(206.85,198.13)" d="M3,0A3,3 0 1,1 0,-3A3,3 0 0,1 3,0Z" style="opacity: 1; stroke-width: 0px; fill: rgb(97, 107, 250); fill-opacity: 1;"/><path class="point" transform="translate(216.86,198.13)" d="M3,0A3,3 0 1,1 0,-3A3,3 0 0,1 3,0Z" style="opacity: 1; stroke-width: 0px; fill: rgb(97, 107, 250); fill-opacity: 1;"/><path class="point" transform="translate(216.86,198.13)" d="M3,0A3,3 0 1,1 0,-3A3,3 0 0,1 3,0Z" style="opacity: 1; stroke-width: 0px; fill: rgb(97, 107, 250); fill-opacity: 1;"/><path class="point" transform="translate(216.86,198.13)" d="M3,0A3,3 0 1,1 0,-3A3,3 0 0,1 3,0Z" style="opacity: 1; stroke-width: 0px; fill: rgb(97, 107, 250); fill-opacity: 1;"/><path class="point" transform="translate(216.86,198.13)" d="M3,0A3,3 0 1,1 0,-3A3,3 0 0,1 3,0Z" style="opacity: 1; stroke-width: 0px; fill: rgb(97, 107, 250); fill-opacity: 1;"/><path class="point" transform="translate(216.86,198.13)" d="M3,0A3,3 0 1,1 0,-3A3,3 0 0,1 3,0Z" style="opacity: 1; stroke-width: 0px; fill: rgb(97, 107, 250); fill-opacity: 1;"/><path class="point" transform="translate(216.86,198.13)" d="M3,0A3,3 0 1,1 0,-3A3,3 0 0,1 3,0Z" style="opacity: 1; stroke-width: 0px; fill: rgb(97, 107, 250); fill-opacity: 1;"/><path class="point" transform="translate(216.86,198.13)" d="M3,0A3,3 0 1,1 0,-3A3,3 0 0,1 3,0Z" style="opacity: 1; stroke-width: 0px; fill: rgb(97, 107, 250); fill-opacity: 1;"/><path class="point" transform="translate(216.86,198.13)" d="M3,0A3,3 0 1,1 0,-3A3,3 0 0,1 3,0Z" style="opacity: 1; stroke-width: 0px; fill: rgb(97, 107, 250); fill-opacity: 1;"/><path class="point" transform="translate(216.86,196.43)" d="M3,0A3,3 0 1,1 0,-3A3,3 0 0,1 3,0Z" style="opacity: 1; stroke-width: 0px; fill: rgb(97, 107, 250); fill-opacity: 1;"/><path class="point" transform="translate(226.86,196.43)" d="M3,0A3,3 0 1,1 0,-3A3,3 0 0,1 3,0Z" style="opacity: 1; stroke-width: 0px; fill: rgb(97, 107, 250); fill-opacity: 1;"/><path class="point" transform="translate(226.86,196.43)" d="M3,0A3,3 0 1,1 0,-3A3,3 0 0,1 3,0Z" style="opacity: 1; stroke-width: 0px; fill: rgb(97, 107, 250); fill-opacity: 1;"/><path class="point" transform="translate(226.86,194.73)" d="M3,0A3,3 0 1,1 0,-3A3,3 0 0,1 3,0Z" style="opacity: 1; stroke-width: 0px; fill: rgb(97, 107, 250); fill-opacity: 1;"/><path class="point" transform="translate(226.86,194.73)" d="M3,0A3,3 0 1,1 0,-3A3,3 0 0,1 3,0Z" style="opacity: 1; stroke-width: 0px; fill: rgb(97, 107, 250); fill-opacity: 1;"/><path class="point" transform="translate(236.87,194.73)" d="M3,0A3,3 0 1,1 0,-3A3,3 0 0,1 3,0Z" style="opacity: 1; stroke-width: 0px; fill: rgb(97, 107, 250); fill-opacity: 1;"/><path class="point" transform="translate(236.87,194.73)" d="M3,0A3,3 0 1,1 0,-3A3,3 0 0,1 3,0Z" style="opacity: 1; stroke-width: 0px; fill: rgb(97, 107, 250); fill-opacity: 1;"/><path class="point" transform="translate(236.87,194.73)" d="M3,0A3,3 0 1,1 0,-3A3,3 0 0,1 3,0Z" style="opacity: 1; stroke-width: 0px; fill: rgb(97, 107, 250); fill-opacity: 1;"/><path class="point" transform="translate(236.87,194.73)" d="M3,0A3,3 0 1,1 0,-3A3,3 0 0,1 3,0Z" style="opacity: 1; stroke-width: 0px; fill: rgb(97, 107, 250); fill-opacity: 1;"/><path class="point" transform="translate(236.87,194.73)" d="M3,0A3,3 0 1,1 0,-3A3,3 0 0,1 3,0Z" style="opacity: 1; stroke-width: 0px; fill: rgb(97, 107, 250); fill-opacity: 1;"/><path class="point" transform="translate(236.87,194.73)" d="M3,0A3,3 0 1,1 0,-3A3,3 0 0,1 3,0Z" style="opacity: 1; stroke-width: 0px; fill: rgb(97, 107, 250); fill-opacity: 1;"/><path class="point" transform="translate(236.87,193.03)" d="M3,0A3,3 0 1,1 0,-3A3,3 0 0,1 3,0Z" style="opacity: 1; stroke-width: 0px; fill: rgb(97, 107, 250); fill-opacity: 1;"/><path class="point" transform="translate(236.87,193.03)" d="M3,0A3,3 0 1,1 0,-3A3,3 0 0,1 3,0Z" style="opacity: 1; stroke-width: 0px; fill: rgb(97, 107, 250); fill-opacity: 1;"/><path class="point" transform="translate(236.87,191.33)" d="M3,0A3,3 0 1,1 0,-3A3,3 0 0,1 3,0Z" style="opacity: 1; stroke-width: 0px; fill: rgb(97, 107, 250); fill-opacity: 1;"/><path class="point" transform="translate(241.88,191.33)" d="M3,0A3,3 0 1,1 0,-3A3,3 0 0,1 3,0Z" style="opacity: 1; stroke-width: 0px; fill: rgb(97, 107, 250); fill-opacity: 1;"/><path class="point" transform="translate(241.88,191.33)" d="M3,0A3,3 0 1,1 0,-3A3,3 0 0,1 3,0Z" style="opacity: 1; stroke-width: 0px; fill: rgb(97, 107, 250); fill-opacity: 1;"/><path class="point" transform="translate(246.88,191.33)" d="M3,0A3,3 0 1,1 0,-3A3,3 0 0,1 3,0Z" style="opacity: 1; stroke-width: 0px; fill: rgb(97, 107, 250); fill-opacity: 1;"/><path class="point" transform="translate(246.88,191.33)" d="M3,0A3,3 0 1,1 0,-3A3,3 0 0,1 3,0Z" style="opacity: 1; stroke-width: 0px; fill: rgb(97, 107, 250); fill-opacity: 1;"/><path class="point" transform="translate(251.89,191.33)" d="M3,0A3,3 0 1,1 0,-3A3,3 0 0,1 3,0Z" style="opacity: 1; stroke-width: 0px; fill: rgb(97, 107, 250); fill-opacity: 1;"/><path class="point" transform="translate(251.89,191.33)" d="M3,0A3,3 0 1,1 0,-3A3,3 0 0,1 3,0Z" style="opacity: 1; stroke-width: 0px; fill: rgb(97, 107, 250); fill-opacity: 1;"/><path class="point" transform="translate(251.89,189.63)" d="M3,0A3,3 0 1,1 0,-3A3,3 0 0,1 3,0Z" style="opacity: 1; stroke-width: 0px; fill: rgb(97, 107, 250); fill-opacity: 1;"/><path class="point" transform="translate(251.89,189.63)" d="M3,0A3,3 0 1,1 0,-3A3,3 0 0,1 3,0Z" style="opacity: 1; stroke-width: 0px; fill: rgb(97, 107, 250); fill-opacity: 1;"/><path class="point" transform="translate(251.89,187.94)" d="M3,0A3,3 0 1,1 0,-3A3,3 0 0,1 3,0Z" style="opacity: 1; stroke-width: 0px; fill: rgb(97, 107, 250); fill-opacity: 1;"/><path class="point" transform="translate(256.89,187.94)" d="M3,0A3,3 0 1,1 0,-3A3,3 0 0,1 3,0Z" style="opacity: 1; stroke-width: 0px; fill: rgb(97, 107, 250); fill-opacity: 1;"/><path class="point" transform="translate(256.89,187.94)" d="M3,0A3,3 0 1,1 0,-3A3,3 0 0,1 3,0Z" style="opacity: 1; stroke-width: 0px; fill: rgb(97, 107, 250); fill-opacity: 1;"/><path class="point" transform="translate(261.9,187.94)" d="M3,0A3,3 0 1,1 0,-3A3,3 0 0,1 3,0Z" style="opacity: 1; stroke-width: 0px; fill: rgb(97, 107, 250); fill-opacity: 1;"/><path class="point" transform="translate(266.9,187.94)" d="M3,0A3,3 0 1,1 0,-3A3,3 0 0,1 3,0Z" style="opacity: 1; stroke-width: 0px; fill: rgb(97, 107, 250); fill-opacity: 1;"/><path class="point" transform="translate(266.9,187.94)" d="M3,0A3,3 0 1,1 0,-3A3,3 0 0,1 3,0Z" style="opacity: 1; stroke-width: 0px; fill: rgb(97, 107, 250); fill-opacity: 1;"/><path class="point" transform="translate(266.9,187.94)" d="M3,0A3,3 0 1,1 0,-3A3,3 0 0,1 3,0Z" style="opacity: 1; stroke-width: 0px; fill: rgb(97, 107, 250); fill-opacity: 1;"/><path class="point" transform="translate(266.9,186.24)" d="M3,0A3,3 0 1,1 0,-3A3,3 0 0,1 3,0Z" style="opacity: 1; stroke-width: 0px; fill: rgb(97, 107, 250); fill-opacity: 1;"/><path class="point" transform="translate(266.9,186.24)" d="M3,0A3,3 0 1,1 0,-3A3,3 0 0,1 3,0Z" style="opacity: 1; stroke-width: 0px; fill: rgb(97, 107, 250); fill-opacity: 1;"/><path class="point" transform="translate(271.9,186.24)" d="M3,0A3,3 0 1,1 0,-3A3,3 0 0,1 3,0Z" style="opacity: 1; stroke-width: 0px; fill: rgb(97, 107, 250); fill-opacity: 1;"/><path class="point" transform="translate(271.9,186.24)" d="M3,0A3,3 0 1,1 0,-3A3,3 0 0,1 3,0Z" style="opacity: 1; stroke-width: 0px; fill: rgb(97, 107, 250); fill-opacity: 1;"/><path class="point" transform="translate(281.91,186.24)" d="M3,0A3,3 0 1,1 0,-3A3,3 0 0,1 3,0Z" style="opacity: 1; stroke-width: 0px; fill: rgb(97, 107, 250); fill-opacity: 1;"/><path class="point" transform="translate(281.91,184.54)" d="M3,0A3,3 0 1,1 0,-3A3,3 0 0,1 3,0Z" style="opacity: 1; stroke-width: 0px; fill: rgb(97, 107, 250); fill-opacity: 1;"/><path class="point" transform="translate(281.91,184.54)" d="M3,0A3,3 0 1,1 0,-3A3,3 0 0,1 3,0Z" style="opacity: 1; stroke-width: 0px; fill: rgb(97, 107, 250); fill-opacity: 1;"/><path class="point" transform="translate(281.91,182.84)" d="M3,0A3,3 0 1,1 0,-3A3,3 0 0,1 3,0Z" style="opacity: 1; stroke-width: 0px; fill: rgb(97, 107, 250); fill-opacity: 1;"/><path class="point" transform="translate(281.91,182.84)" d="M3,0A3,3 0 1,1 0,-3A3,3 0 0,1 3,0Z" style="opacity: 1; stroke-width: 0px; fill: rgb(97, 107, 250); fill-opacity: 1;"/><path class="point" transform="translate(281.91,182.84)" d="M3,0A3,3 0 1,1 0,-3A3,3 0 0,1 3,0Z" style="opacity: 1; stroke-width: 0px; fill: rgb(97, 107, 250); fill-opacity: 1;"/><path class="point" transform="translate(281.91,182.84)" d="M3,0A3,3 0 1,1 0,-3A3,3 0 0,1 3,0Z" style="opacity: 1; stroke-width: 0px; fill: rgb(97, 107, 250); fill-opacity: 1;"/><path class="point" transform="translate(291.92,181.14)" d="M3,0A3,3 0 1,1 0,-3A3,3 0 0,1 3,0Z" style="opacity: 1; stroke-width: 0px; fill: rgb(97, 107, 250); fill-opacity: 1;"/><path class="point" transform="translate(296.93,179.44)" d="M3,0A3,3 0 1,1 0,-3A3,3 0 0,1 3,0Z" style="opacity: 1; stroke-width: 0px; fill: rgb(97, 107, 250); fill-opacity: 1;"/><path class="point" transform="translate(296.93,179.44)" d="M3,0A3,3 0 1,1 0,-3A3,3 0 0,1 3,0Z" style="opacity: 1; stroke-width: 0px; fill: rgb(97, 107, 250); fill-opacity: 1;"/><path class="point" transform="translate(296.93,179.44)" d="M3,0A3,3 0 1,1 0,-3A3,3 0 0,1 3,0Z" style="opacity: 1; stroke-width: 0px; fill: rgb(97, 107, 250); fill-opacity: 1;"/><path class="point" transform="translate(301.93,179.44)" d="M3,0A3,3 0 1,1 0,-3A3,3 0 0,1 3,0Z" style="opacity: 1; stroke-width: 0px; fill: rgb(97, 107, 250); fill-opacity: 1;"/><path class="point" transform="translate(301.93,177.74)" d="M3,0A3,3 0 1,1 0,-3A3,3 0 0,1 3,0Z" style="opacity: 1; stroke-width: 0px; fill: rgb(97, 107, 250); fill-opacity: 1;"/><path class="point" transform="translate(316.94,176.04)" d="M3,0A3,3 0 1,1 0,-3A3,3 0 0,1 3,0Z" style="opacity: 1; stroke-width: 0px; fill: rgb(97, 107, 250); fill-opacity: 1;"/><path class="point" transform="translate(316.94,176.04)" d="M3,0A3,3 0 1,1 0,-3A3,3 0 0,1 3,0Z" style="opacity: 1; stroke-width: 0px; fill: rgb(97, 107, 250); fill-opacity: 1;"/><path class="point" transform="translate(321.95,176.04)" d="M3,0A3,3 0 1,1 0,-3A3,3 0 0,1 3,0Z" style="opacity: 1; stroke-width: 0px; fill: rgb(97, 107, 250); fill-opacity: 1;"/><path class="point" transform="translate(321.95,174.34)" d="M3,0A3,3 0 1,1 0,-3A3,3 0 0,1 3,0Z" style="opacity: 1; stroke-width: 0px; fill: rgb(97, 107, 250); fill-opacity: 1;"/><path class="point" transform="translate(326.95,172.65)" d="M3,0A3,3 0 1,1 0,-3A3,3 0 0,1 3,0Z" style="opacity: 1; stroke-width: 0px; fill: rgb(97, 107, 250); fill-opacity: 1;"/><path class="point" transform="translate(331.96,172.65)" d="M3,0A3,3 0 1,1 0,-3A3,3 0 0,1 3,0Z" style="opacity: 1; stroke-width: 0px; fill: rgb(97, 107, 250); fill-opacity: 1;"/><path class="point" transform="translate(331.96,172.65)" d="M3,0A3,3 0 1,1 0,-3A3,3 0 0,1 3,0Z" style="opacity: 1; stroke-width: 0px; fill: rgb(97, 107, 250); fill-opacity: 1;"/><path class="point" transform="translate(336.96,169.25)" d="M3,0A3,3 0 1,1 0,-3A3,3 0 0,1 3,0Z" style="opacity: 1; stroke-width: 0px; fill: rgb(97, 107, 250); fill-opacity: 1;"/><path class="point" transform="translate(346.97,169.25)" d="M3,0A3,3 0 1,1 0,-3A3,3 0 0,1 3,0Z" style="opacity: 1; stroke-width: 0px; fill: rgb(97, 107, 250); fill-opacity: 1;"/><path class="point" transform="translate(346.97,167.55)" d="M3,0A3,3 0 1,1 0,-3A3,3 0 0,1 3,0Z" style="opacity: 1; stroke-width: 0px; fill: rgb(97, 107, 250); fill-opacity: 1;"/><path class="point" transform="translate(361.98,167.55)" d="M3,0A3,3 0 1,1 0,-3A3,3 0 0,1 3,0Z" style="opacity: 1; stroke-width: 0px; fill: rgb(97, 107, 250); fill-opacity: 1;"/><path class="point" transform="translate(361.98,165.85)" d="M3,0A3,3 0 1,1 0,-3A3,3 0 0,1 3,0Z" style="opacity: 1; stroke-width: 0px; fill: rgb(97, 107, 250); fill-opacity: 1;"/><path class="point" transform="translate(366.99,164.15)" d="M3,0A3,3 0 1,1 0,-3A3,3 0 0,1 3,0Z" style="opacity: 1; stroke-width: 0px; fill: rgb(97, 107, 250); fill-opacity: 1;"/><path class="point" transform="translate(382,162.45)" d="M3,0A3,3 0 1,1 0,-3A3,3 0 0,1 3,0Z" style="opacity: 1; stroke-width: 0px; fill: rgb(97, 107, 250); fill-opacity: 1;"/><path class="point" transform="translate(387.01,160.75)" d="M3,0A3,3 0 1,1 0,-3A3,3 0 0,1 3,0Z" style="opacity: 1; stroke-width: 0px; fill: rgb(97, 107, 250); fill-opacity: 1;"/><path class="point" transform="translate(397.02,157.36)" d="M3,0A3,3 0 1,1 0,-3A3,3 0 0,1 3,0Z" style="opacity: 1; stroke-width: 0px; fill: rgb(97, 107, 250); fill-opacity: 1;"/><path class="point" transform="translate(412.03,153.96)" d="M3,0A3,3 0 1,1 0,-3A3,3 0 0,1 3,0Z" style="opacity: 1; stroke-width: 0px; fill: rgb(97, 107, 250); fill-opacity: 1;"/><path class="point" transform="translate(427.04,150.56)" d="M3,0A3,3 0 1,1 0,-3A3,3 0 0,1 3,0Z" style="opacity: 1; stroke-width: 0px; fill: rgb(97, 107, 250); fill-opacity: 1;"/><path class="point" transform="translate(442.06,145.46)" d="M3,0A3,3 0 1,1 0,-3A3,3 0 0,1 3,0Z" style="opacity: 1; stroke-width: 0px; fill: rgb(97, 107, 250); fill-opacity: 1;"/><path class="point" transform="translate(477.09,138.67)" d="M3,0A3,3 0 1,1 0,-3A3,3 0 0,1 3,0Z" style="opacity: 1; stroke-width: 0px; fill: rgb(97, 107, 250); fill-opacity: 1;"/><path class="point" transform="translate(717.3,94.5)" d="M3,0A3,3 0 1,1 0,-3A3,3 0 0,1 3,0Z" style="opacity: 1; stroke-width: 0px; fill: rgb(97, 107, 250); fill-opacity: 1;"/></g><g class="text"/></g></g></g></g><g class="zerolinelayer-above"/><path class="xlines-above crisp" d="M0,0" style="fill: none;"/><path class="ylines-above crisp" d="M0,0" style="fill: none;"/><g class="overlines-above"/><g class="xaxislayer-above"><g class="xtick"><text text-anchor="middle" x="0" y="372" transform="translate(82.7,0)" style="font-family: 'Open Sans', verdana, arial, sans-serif; font-size: 12px; fill: rgb(42, 63, 95); fill-opacity: 1; white-space: pre;">0</text></g><g class="xtick"><text text-anchor="middle" x="0" y="372" style="font-family: 'Open Sans', verdana, arial, sans-serif; font-size: 12px; fill: rgb(42, 63, 95); fill-opacity: 1; white-space: pre;" transform="translate(172.78,0)">5</text></g><g class="xtick"><text text-anchor="middle" x="0" y="372" style="font-family: 'Open Sans', verdana, arial, sans-serif; font-size: 12px; fill: rgb(42, 63, 95); fill-opacity: 1; white-space: pre;" transform="translate(262.86,0)">10</text></g><g class="xtick"><text text-anchor="middle" x="0" y="372" style="font-family: 'Open Sans', verdana, arial, sans-serif; font-size: 12px; fill: rgb(42, 63, 95); fill-opacity: 1; white-space: pre;" transform="translate(352.94,0)">15</text></g><g class="xtick"><text text-anchor="middle" x="0" y="372" style="font-family: 'Open Sans', verdana, arial, sans-serif; font-size: 12px; fill: rgb(42, 63, 95); fill-opacity: 1; white-space: pre;" transform="translate(443.02,0)">20</text></g><g class="xtick"><text text-anchor="middle" x="0" y="372" style="font-family: 'Open Sans', verdana, arial, sans-serif; font-size: 12px; fill: rgb(42, 63, 95); fill-opacity: 1; white-space: pre;" transform="translate(533.1,0)">25</text></g><g class="xtick"><text text-anchor="middle" x="0" y="372" style="font-family: 'Open Sans', verdana, arial, sans-serif; font-size: 12px; fill: rgb(42, 63, 95); fill-opacity: 1; white-space: pre;" transform="translate(623.18,0)">30</text></g><g class="xtick"><text text-anchor="middle" x="0" y="372" style="font-family: 'Open Sans', verdana, arial, sans-serif; font-size: 12px; fill: rgb(42, 63, 95); fill-opacity: 1; white-space: pre;" transform="translate(713.26,0)">35</text></g></g><g class="yaxislayer-above"><g class="ytick"><text text-anchor="end" x="40" y="4.199999999999999" transform="translate(0,342.3)" style="font-family: 'Open Sans', verdana, arial, sans-serif; font-size: 12px; fill: rgb(42, 63, 95); fill-opacity: 1; white-space: pre;">0</text></g><g class="ytick"><text text-anchor="end" x="40" y="4.199999999999999" style="font-family: 'Open Sans', verdana, arial, sans-serif; font-size: 12px; fill: rgb(42, 63, 95); fill-opacity: 1; white-space: pre;" transform="translate(0,281.14)">10</text></g><g class="ytick"><text text-anchor="end" x="40" y="4.199999999999999" style="font-family: 'Open Sans', verdana, arial, sans-serif; font-size: 12px; fill: rgb(42, 63, 95); fill-opacity: 1; white-space: pre;" transform="translate(0,219.98000000000002)">20</text></g><g class="ytick"><text text-anchor="end" x="40" y="4.199999999999999" style="font-family: 'Open Sans', verdana, arial, sans-serif; font-size: 12px; fill: rgb(42, 63, 95); fill-opacity: 1; white-space: pre;" transform="translate(0,158.82)">30</text></g></g><g class="overaxes-above"/></g></g><g class="polarlayer"/><g class="smithlayer"/><g class="ternarylayer"/><g class="geolayer"/><g class="funnelarealayer"/><g class="pielayer"/><g class="iciclelayer"/><g class="treemaplayer"/><g class="sunburstlayer"/><g class="glimages"/><defs id="topdefs-d4b443"><g class="clips"/></defs><g class="layer-above"><g class="imagelayer"/><g class="shapelayer"/></g><g class="infolayer"><g class="g-gtitle"><text class="gtitle" x="400" y="50" text-anchor="middle" dy="0em" style="opacity: 1; font-family: 'Open Sans', verdana, arial, sans-serif; font-size: 17px; fill: rgb(42, 63, 95); fill-opacity: 1; white-space: pre;"><tspan class="line" dy="0em" x="400" y="50">QQ-plot entre </tspan><tspan class="line" dy="1.3em" x="400" y="50">les quantiles de la station la plus proche (7052960) et </tspan><tspan class="line" dy="2.6em" x="400" y="50">la station ouverte la plus proche (7053KGR)</tspan></text></g><g class="g-xtitle" transform="translate(0,-2.3000000000000114)"><text class="xtitle" x="420.5" y="399.3" text-anchor="middle" style="opacity: 1; font-family: 'Open Sans', verdana, arial, sans-serif; font-size: 14px; fill: rgb(42, 63, 95); fill-opacity: 1; white-space: pre;">7052960</text></g><g class="g-ytitle" transform="translate(8.666015625,0)"><text class="ytitle" transform="rotate(-90,5.334375000000001,229.5)" x="5.334375000000001" y="229.5" text-anchor="middle" style="opacity: 1; font-family: 'Open Sans', verdana, arial, sans-serif; font-size: 14px; fill: rgb(42, 63, 95); fill-opacity: 1; white-space: pre;">7053KGR</text></g></g></svg>