<svg class="main-svg" xmlns="http://www.w3.org/2000/svg" xmlns:xlink="http://www.w3.org/1999/xlink" width="800" height="400" style="" viewBox="0 0 800 400"><rect x="0" y="0" width="800" height="400" style="fill: rgb(255, 255, 255); fill-opacity: 1;"/><defs id="defs-0c89ef"><g class="clips"><clipPath id="clip0c89efxyplot" class="plotclip"><rect width="751" height="272"/></clipPath><clipPath class="axesclip" id="clip0c89efx"><rect x="49" y="0" width="751" height="400"/></clipPath><clipPath class="axesclip" id="clip0c89efy"><rect x="0" y="75" width="800" height="272"/></clipPath><clipPath class="axesclip" id="clip0c89efxy"><rect x="49" y="75" width="751" height="272"/></clipPath></g><g class="gradients"/><g class="patterns"/></defs><g class="bglayer"><rect class="bg" x="49" y="75" width="751" height="272" style="fill: rgb(229, 236, 246); fill-opacity: 1; stroke-width: 0;"/></g><g class="layer-below"><g class="imagelayer"/><g class="shapelayer"/></g><g class="cartesianlayer"><g class="subplot xy"><g class="layer-subplot"><g class="shapelayer"/><g class="imagelayer"/></g><g class="minor-gridlayer"><g class="x"/><g class="y"/></g><g class="gridlayer"><g class="x"><path class="xgrid crisp" transform="translate(91.28,0)" d="M0,75v272" style="stroke: rgb(255, 255, 255); stroke-opacity: 1; stroke-width: 1px;"/><path class="xgrid crisp" transform="translate(200.45,0)" d="M0,75v272" style="stroke: rgb(255, 255, 255); stroke-opacity: 1; stroke-width: 1px;"/><path class="xgrid crisp" transform="translate(309.62,0)" d="M0,75v272" style="stroke: rgb(255, 255, 255); stroke-opacity: 1; stroke-width: 1px;"/><path class="xgrid crisp" transform="translate(418.8,0)" d="M0,75v272" style="stroke: rgb(255, 255, 255); stroke-opacity: 1; stroke-width: 1px;"/><path class="xgrid crisp" transform="translate(527.97,0)" d="M0,75v272" style="stroke: rgb(255, 255, 255); stroke-opacity: 1; stroke-width: 1px;"/><path class="xgrid crisp" transform="translate(637.14,0)" d="M0,75v272" style="stroke: rgb(255, 255, 255); stroke-opacity: 1; stroke-width: 1px;"/><path class="xgrid crisp" transform="translate(746.31,0)" d="M0,75v272" style="stroke: rgb(255, 255, 255); stroke-opacity: 1; stroke-width: 1px;"/></g><g class="y"><path class="ygrid crisp" transform="translate(0,330.81)" d="M49,0h751" style="stroke: rgb(255, 255, 255); stroke-opacity: 1; stroke-width: 1px;"/><path class="ygrid crisp" transform="translate(0,294.07)" d="M49,0h751" style="stroke: rgb(255, 255, 255); stroke-opacity: 1; stroke-width: 1px;"/><path class="ygrid crisp" transform="translate(0,257.34000000000003)" d="M49,0h751" style="stroke: rgb(255, 255, 255); stroke-opacity: 1; stroke-width: 1px;"/><path class="ygrid crisp" transform="translate(0,220.61)" d="M49,0h751" style="stroke: rgb(255, 255, 255); stroke-opacity: 1; stroke-width: 1px;"/><path class="ygrid crisp" transform="translate(0,183.88)" d="M49,0h751" style="stroke: rgb(255, 255, 255); stroke-opacity: 1; stroke-width: 1px;"/><path class="ygrid crisp" transform="translate(0,147.15)" d="M49,0h751" style="stroke: rgb(255, 255, 255); stroke-opacity: 1; stroke-width: 1px;"/><path class="ygrid crisp" transform="translate(0,110.41)" d="M49,0h751" style="stroke: rgb(255, 255, 255); stroke-opacity: 1; stroke-width: 1px;"/></g></g><g class="zerolinelayer"/><g class="layer-between"><g class="shapelayer"/><g class="imagelayer"/></g><path class="xlines-below"/><path class="ylines-below"/><g class="overlines-below"/><g class="xaxislayer-below"/><g class="yaxislayer-below"/><g class="overaxes-below"/><g class="overplot"><g class="xy" transform="translate(49,75)" clip-path="url(#clip0c89efxyplot)"><g class="scatterlayer mlayer"><g class="trace scatter trace881aba" style="stroke-miterlimit: 2; opacity: 1;"><g class="fills"/><g class="errorbars"/><g class="lines"><path class="js-line" d="M45.72,254.65L751,17.35" style="vector-effect: none; fill: none; stroke: rgb(97, 107, 250); stroke-opacity: 1; stroke-width: 2px; opacity: 1;"/></g><g class="points"/><g class="text"/></g><g class="trace scatter trace373500" style="stroke-miterlimit: 2; opacity: 1;"><g class="fills"/><g class="errorbars"/><g class="lines"/><g class="points"><path class="point" transform="translate(41.3,254.65)" d="M3,0A3,3 0 1,1 0,-3A3,3 0 0,1 3,0Z" style="opacity: 1; stroke-width: 0px; fill: rgb(97, 107, 250); fill-opacity: 1;"/><path class="point" transform="translate(56.34,249.73)" d="M3,0A3,3 0 1,1 0,-3A3,3 0 0,1 3,0Z" style="opacity: 1; stroke-width: 0px; fill: rgb(97, 107, 250); fill-opacity: 1;"/><path class="point" transform="translate(67.8,244.8)" d="M3,0A3,3 0 1,1 0,-3A3,3 0 0,1 3,0Z" style="opacity: 1; stroke-width: 0px; fill: rgb(97, 107, 250); fill-opacity: 1;"/><path class="point" transform="translate(77.44,239.16)" d="M3,0A3,3 0 1,1 0,-3A3,3 0 0,1 3,0Z" style="opacity: 1; stroke-width: 0px; fill: rgb(97, 107, 250); fill-opacity: 1;"/><path class="point" transform="translate(85.95,232.93)" d="M3,0A3,3 0 1,1 0,-3A3,3 0 0,1 3,0Z" style="opacity: 1; stroke-width: 0px; fill: rgb(97, 107, 250); fill-opacity: 1;"/><path class="point" transform="translate(93.66,226.7)" d="M3,0A3,3 0 1,1 0,-3A3,3 0 0,1 3,0Z" style="opacity: 1; stroke-width: 0px; fill: rgb(97, 107, 250); fill-opacity: 1;"/><path class="point" transform="translate(100.78,220.41)" d="M3,0A3,3 0 1,1 0,-3A3,3 0 0,1 3,0Z" style="opacity: 1; stroke-width: 0px; fill: rgb(97, 107, 250); fill-opacity: 1;"/><path class="point" transform="translate(107.42,213.56)" d="M3,0A3,3 0 1,1 0,-3A3,3 0 0,1 3,0Z" style="opacity: 1; stroke-width: 0px; fill: rgb(97, 107, 250); fill-opacity: 1;"/><path class="point" transform="translate(113.7,206.72)" d="M3,0A3,3 0 1,1 0,-3A3,3 0 0,1 3,0Z" style="opacity: 1; stroke-width: 0px; fill: rgb(97, 107, 250); fill-opacity: 1;"/><path class="point" transform="translate(119.66,199.88)" d="M3,0A3,3 0 1,1 0,-3A3,3 0 0,1 3,0Z" style="opacity: 1; stroke-width: 0px; fill: rgb(97, 107, 250); fill-opacity: 1;"/><path class="point" transform="translate(125.37,197.32)" d="M3,0A3,3 0 1,1 0,-3A3,3 0 0,1 3,0Z" style="opacity: 1; stroke-width: 0px; fill: rgb(97, 107, 250); fill-opacity: 1;"/><path class="point" transform="translate(130.85,197.01)" d="M3,0A3,3 0 1,1 0,-3A3,3 0 0,1 3,0Z" style="opacity: 1; stroke-width: 0px; fill: rgb(97, 107, 250); fill-opacity: 1;"/><path class="point" transform="translate(136.15,196.7)" d="M3,0A3,3 0 1,1 0,-3A3,3 0 0,1 3,0Z" style="opacity: 1; stroke-width: 0px; fill: rgb(97, 107, 250); fill-opacity: 1;"/><path class="point" transform="translate(141.27,196.41)" d="M3,0A3,3 0 1,1 0,-3A3,3 0 0,1 3,0Z" style="opacity: 1; stroke-width: 0px; fill: rgb(97, 107, 250); fill-opacity: 1;"/><path class="point" transform="translate(146.25,196.16)" d="M3,0A3,3 0 1,1 0,-3A3,3 0 0,1 3,0Z" style="opacity: 1; stroke-width: 0px; fill: rgb(97, 107, 250); fill-opacity: 1;"/><path class="point" transform="translate(151.1,195.91)" d="M3,0A3,3 0 1,1 0,-3A3,3 0 0,1 3,0Z" style="opacity: 1; stroke-width: 0px; fill: rgb(97, 107, 250); fill-opacity: 1;"/><path class="point" transform="translate(155.84,195.67)" d="M3,0A3,3 0 1,1 0,-3A3,3 0 0,1 3,0Z" style="opacity: 1; stroke-width: 0px; fill: rgb(97, 107, 250); fill-opacity: 1;"/><path class="point" transform="translate(160.47,193.86)" d="M3,0A3,3 0 1,1 0,-3A3,3 0 0,1 3,0Z" style="opacity: 1; stroke-width: 0px; fill: rgb(97, 107, 250); fill-opacity: 1;"/><path class="point" transform="translate(165.01,191.56)" d="M3,0A3,3 0 1,1 0,-3A3,3 0 0,1 3,0Z" style="opacity: 1; stroke-width: 0px; fill: rgb(97, 107, 250); fill-opacity: 1;"/><path class="point" transform="translate(169.46,189.26)" d="M3,0A3,3 0 1,1 0,-3A3,3 0 0,1 3,0Z" style="opacity: 1; stroke-width: 0px; fill: rgb(97, 107, 250); fill-opacity: 1;"/><path class="point" transform="translate(173.84,187.29)" d="M3,0A3,3 0 1,1 0,-3A3,3 0 0,1 3,0Z" style="opacity: 1; stroke-width: 0px; fill: rgb(97, 107, 250); fill-opacity: 1;"/><path class="point" transform="translate(178.15,186.08)" d="M3,0A3,3 0 1,1 0,-3A3,3 0 0,1 3,0Z" style="opacity: 1; stroke-width: 0px; fill: rgb(97, 107, 250); fill-opacity: 1;"/><path class="point" transform="translate(182.4,184.87)" d="M3,0A3,3 0 1,1 0,-3A3,3 0 0,1 3,0Z" style="opacity: 1; stroke-width: 0px; fill: rgb(97, 107, 250); fill-opacity: 1;"/><path class="point" transform="translate(186.6,183.66)" d="M3,0A3,3 0 1,1 0,-3A3,3 0 0,1 3,0Z" style="opacity: 1; stroke-width: 0px; fill: rgb(97, 107, 250); fill-opacity: 1;"/><path class="point" transform="translate(190.74,182.69)" d="M3,0A3,3 0 1,1 0,-3A3,3 0 0,1 3,0Z" style="opacity: 1; stroke-width: 0px; fill: rgb(97, 107, 250); fill-opacity: 1;"/><path class="point" transform="translate(194.84,181.77)" d="M3,0A3,3 0 1,1 0,-3A3,3 0 0,1 3,0Z" style="opacity: 1; stroke-width: 0px; fill: rgb(97, 107, 250); fill-opacity: 1;"/><path class="point" transform="translate(198.9,180.84)" d="M3,0A3,3 0 1,1 0,-3A3,3 0 0,1 3,0Z" style="opacity: 1; stroke-width: 0px; fill: rgb(97, 107, 250); fill-opacity: 1;"/><path class="point" transform="translate(202.92,180.3)" d="M3,0A3,3 0 1,1 0,-3A3,3 0 0,1 3,0Z" style="opacity: 1; stroke-width: 0px; fill: rgb(97, 107, 250); fill-opacity: 1;"/><path class="point" transform="translate(206.91,180.3)" d="M3,0A3,3 0 1,1 0,-3A3,3 0 0,1 3,0Z" style="opacity: 1; stroke-width: 0px; fill: rgb(97, 107, 250); fill-opacity: 1;"/><path class="point" transform="translate(210.86,180.3)" d="M3,0A3,3 0 1,1 0,-3A3,3 0 0,1 3,0Z" style="opacity: 1; stroke-width: 0px; fill: rgb(97, 107, 250); fill-opacity: 1;"/><path class="point" transform="translate(214.79,180.3)" d="M3,0A3,3 0 1,1 0,-3A3,3 0 0,1 3,0Z" style="opacity: 1; stroke-width: 0px; fill: rgb(97, 107, 250); fill-opacity: 1;"/><path class="point" transform="translate(218.7,177.27)" d="M3,0A3,3 0 1,1 0,-3A3,3 0 0,1 3,0Z" style="opacity: 1; stroke-width: 0px; fill: rgb(97, 107, 250); fill-opacity: 1;"/><path class="point" transform="translate(222.59,174.12)" d="M3,0A3,3 0 1,1 0,-3A3,3 0 0,1 3,0Z" style="opacity: 1; stroke-width: 0px; fill: rgb(97, 107, 250); fill-opacity: 1;"/><path class="point" transform="translate(226.45,170.98)" d="M3,0A3,3 0 1,1 0,-3A3,3 0 0,1 3,0Z" style="opacity: 1; stroke-width: 0px; fill: rgb(97, 107, 250); fill-opacity: 1;"/><path class="point" transform="translate(230.3,169.12)" d="M3,0A3,3 0 1,1 0,-3A3,3 0 0,1 3,0Z" style="opacity: 1; stroke-width: 0px; fill: rgb(97, 107, 250); fill-opacity: 1;"/><path class="point" transform="translate(234.14,168.46)" d="M3,0A3,3 0 1,1 0,-3A3,3 0 0,1 3,0Z" style="opacity: 1; stroke-width: 0px; fill: rgb(97, 107, 250); fill-opacity: 1;"/><path class="point" transform="translate(237.97,167.8)" d="M3,0A3,3 0 1,1 0,-3A3,3 0 0,1 3,0Z" style="opacity: 1; stroke-width: 0px; fill: rgb(97, 107, 250); fill-opacity: 1;"/><path class="point" transform="translate(241.79,167.07)" d="M3,0A3,3 0 1,1 0,-3A3,3 0 0,1 3,0Z" style="opacity: 1; stroke-width: 0px; fill: rgb(97, 107, 250); fill-opacity: 1;"/><path class="point" transform="translate(245.6,165.4)" d="M3,0A3,3 0 1,1 0,-3A3,3 0 0,1 3,0Z" style="opacity: 1; stroke-width: 0px; fill: rgb(97, 107, 250); fill-opacity: 1;"/><path class="point" transform="translate(249.41,163.73)" d="M3,0A3,3 0 1,1 0,-3A3,3 0 0,1 3,0Z" style="opacity: 1; stroke-width: 0px; fill: rgb(97, 107, 250); fill-opacity: 1;"/><path class="point" transform="translate(253.21,162.06)" d="M3,0A3,3 0 1,1 0,-3A3,3 0 0,1 3,0Z" style="opacity: 1; stroke-width: 0px; fill: rgb(97, 107, 250); fill-opacity: 1;"/><path class="point" transform="translate(257.02,161.26)" d="M3,0A3,3 0 1,1 0,-3A3,3 0 0,1 3,0Z" style="opacity: 1; stroke-width: 0px; fill: rgb(97, 107, 250); fill-opacity: 1;"/><path class="point" transform="translate(260.83,161.01)" d="M3,0A3,3 0 1,1 0,-3A3,3 0 0,1 3,0Z" style="opacity: 1; stroke-width: 0px; fill: rgb(97, 107, 250); fill-opacity: 1;"/><path class="point" transform="translate(264.64,160.75)" d="M3,0A3,3 0 1,1 0,-3A3,3 0 0,1 3,0Z" style="opacity: 1; stroke-width: 0px; fill: rgb(97, 107, 250); fill-opacity: 1;"/><path class="point" transform="translate(268.46,159.99)" d="M3,0A3,3 0 1,1 0,-3A3,3 0 0,1 3,0Z" style="opacity: 1; stroke-width: 0px; fill: rgb(97, 107, 250); fill-opacity: 1;"/><path class="point" transform="translate(272.29,156.85)" d="M3,0A3,3 0 1,1 0,-3A3,3 0 0,1 3,0Z" style="opacity: 1; stroke-width: 0px; fill: rgb(97, 107, 250); fill-opacity: 1;"/><path class="point" transform="translate(276.13,153.7)" d="M3,0A3,3 0 1,1 0,-3A3,3 0 0,1 3,0Z" style="opacity: 1; stroke-width: 0px; fill: rgb(97, 107, 250); fill-opacity: 1;"/><path class="point" transform="translate(279.98,150.56)" d="M3,0A3,3 0 1,1 0,-3A3,3 0 0,1 3,0Z" style="opacity: 1; stroke-width: 0px; fill: rgb(97, 107, 250); fill-opacity: 1;"/><path class="point" transform="translate(283.84,147.14)" d="M3,0A3,3 0 1,1 0,-3A3,3 0 0,1 3,0Z" style="opacity: 1; stroke-width: 0px; fill: rgb(97, 107, 250); fill-opacity: 1;"/><path class="point" transform="translate(287.72,143.62)" d="M3,0A3,3 0 1,1 0,-3A3,3 0 0,1 3,0Z" style="opacity: 1; stroke-width: 0px; fill: rgb(97, 107, 250); fill-opacity: 1;"/><path class="point" transform="translate(291.62,140.1)" d="M3,0A3,3 0 1,1 0,-3A3,3 0 0,1 3,0Z" style="opacity: 1; stroke-width: 0px; fill: rgb(97, 107, 250); fill-opacity: 1;"/><path class="point" transform="translate(295.54,137.41)" d="M3,0A3,3 0 1,1 0,-3A3,3 0 0,1 3,0Z" style="opacity: 1; stroke-width: 0px; fill: rgb(97, 107, 250); fill-opacity: 1;"/><path class="point" transform="translate(299.49,136.92)" d="M3,0A3,3 0 1,1 0,-3A3,3 0 0,1 3,0Z" style="opacity: 1; stroke-width: 0px; fill: rgb(97, 107, 250); fill-opacity: 1;"/><path class="point" transform="translate(303.46,136.42)" d="M3,0A3,3 0 1,1 0,-3A3,3 0 0,1 3,0Z" style="opacity: 1; stroke-width: 0px; fill: rgb(97, 107, 250); fill-opacity: 1;"/><path class="point" transform="translate(307.45,135.93)" d="M3,0A3,3 0 1,1 0,-3A3,3 0 0,1 3,0Z" style="opacity: 1; stroke-width: 0px; fill: rgb(97, 107, 250); fill-opacity: 1;"/><path class="point" transform="translate(311.48,135.13)" d="M3,0A3,3 0 1,1 0,-3A3,3 0 0,1 3,0Z" style="opacity: 1; stroke-width: 0px; fill: rgb(97, 107, 250); fill-opacity: 1;"/><path class="point" transform="translate(315.54,134.26)" d="M3,0A3,3 0 1,1 0,-3A3,3 0 0,1 3,0Z" style="opacity: 1; stroke-width: 0px; fill: rgb(97, 107, 250); fill-opacity: 1;"/><path class="point" transform="translate(319.64,133.39)" d="M3,0A3,3 0 1,1 0,-3A3,3 0 0,1 3,0Z" style="opacity: 1; stroke-width: 0px; fill: rgb(97, 107, 250); fill-opacity: 1;"/><path class="point" transform="translate(323.77,132.69)" d="M3,0A3,3 0 1,1 0,-3A3,3 0 0,1 3,0Z" style="opacity: 1; stroke-width: 0px; fill: rgb(97, 107, 250); fill-opacity: 1;"/><path class="point" transform="translate(327.95,132.24)" d="M3,0A3,3 0 1,1 0,-3A3,3 0 0,1 3,0Z" style="opacity: 1; stroke-width: 0px; fill: rgb(97, 107, 250); fill-opacity: 1;"/><path class="point" transform="translate(332.17,131.8)" d="M3,0A3,3 0 1,1 0,-3A3,3 0 0,1 3,0Z" style="opacity: 1; stroke-width: 0px; fill: rgb(97, 107, 250); fill-opacity: 1;"/><path class="point" transform="translate(336.44,131.36)" d="M3,0A3,3 0 1,1 0,-3A3,3 0 0,1 3,0Z" style="opacity: 1; stroke-width: 0px; fill: rgb(97, 107, 250); fill-opacity: 1;"/><path class="point" transform="translate(340.76,131.01)" d="M3,0A3,3 0 1,1 0,-3A3,3 0 0,1 3,0Z" style="opacity: 1; stroke-width: 0px; fill: rgb(97, 107, 250); fill-opacity: 1;"/><path class="point" transform="translate(345.14,130.68)" d="M3,0A3,3 0 1,1 0,-3A3,3 0 0,1 3,0Z" style="opacity: 1; stroke-width: 0px; fill: rgb(97, 107, 250); fill-opacity: 1;"/><path class="point" transform="translate(349.57,130.35)" d="M3,0A3,3 0 1,1 0,-3A3,3 0 0,1 3,0Z" style="opacity: 1; stroke-width: 0px; fill: rgb(97, 107, 250); fill-opacity: 1;"/><path class="point" transform="translate(354.07,128.77)" d="M3,0A3,3 0 1,1 0,-3A3,3 0 0,1 3,0Z" style="opacity: 1; stroke-width: 0px; fill: rgb(97, 107, 250); fill-opacity: 1;"/><path class="point" transform="translate(358.64,125.87)" d="M3,0A3,3 0 1,1 0,-3A3,3 0 0,1 3,0Z" style="opacity: 1; stroke-width: 0px; fill: rgb(97, 107, 250); fill-opacity: 1;"/><path class="point" transform="translate(363.28,122.96)" d="M3,0A3,3 0 1,1 0,-3A3,3 0 0,1 3,0Z" style="opacity: 1; stroke-width: 0px; fill: rgb(97, 107, 250); fill-opacity: 1;"/><path class="point" transform="translate(367.99,120.15)" d="M3,0A3,3 0 1,1 0,-3A3,3 0 0,1 3,0Z" style="opacity: 1; stroke-width: 0px; fill: rgb(97, 107, 250); fill-opacity: 1;"/><path class="point" transform="translate(372.8,119.97)" d="M3,0A3,3 0 1,1 0,-3A3,3 0 0,1 3,0Z" style="opacity: 1; stroke-width: 0px; fill: rgb(97, 107, 250); fill-opacity: 1;"/><path class="point" transform="translate(377.69,119.78)" d="M3,0A3,3 0 1,1 0,-3A3,3 0 0,1 3,0Z" style="opacity: 1; stroke-width: 0px; fill: rgb(97, 107, 250); fill-opacity: 1;"/><path class="point" transform="translate(382.68,119.6)" d="M3,0A3,3 0 1,1 0,-3A3,3 0 0,1 3,0Z" style="opacity: 1; stroke-width: 0px; fill: rgb(97, 107, 250); fill-opacity: 1;"/><path class="point" transform="translate(387.78,117.18)" d="M3,0A3,3 0 1,1 0,-3A3,3 0 0,1 3,0Z" style="opacity: 1; stroke-width: 0px; fill: rgb(97, 107, 250); fill-opacity: 1;"/><path class="point" transform="translate(392.99,113.18)" d="M3,0A3,3 0 1,1 0,-3A3,3 0 0,1 3,0Z" style="opacity: 1; stroke-width: 0px; fill: rgb(97, 107, 250); fill-opacity: 1;"/><path class="point" transform="translate(398.33,109.19)" d="M3,0A3,3 0 1,1 0,-3A3,3 0 0,1 3,0Z" style="opacity: 1; stroke-width: 0px; fill: rgb(97, 107, 250); fill-opacity: 1;"/><path class="point" transform="translate(403.8,105.51)" d="M3,0A3,3 0 1,1 0,-3A3,3 0 0,1 3,0Z" style="opacity: 1; stroke-width: 0px; fill: rgb(97, 107, 250); fill-opacity: 1;"/><path class="point" transform="translate(409.42,103.83)" d="M3,0A3,3 0 1,1 0,-3A3,3 0 0,1 3,0Z" style="opacity: 1; stroke-width: 0px; fill: rgb(97, 107, 250); fill-opacity: 1;"/><path class="point" transform="translate(415.19,102.15)" d="M3,0A3,3 0 1,1 0,-3A3,3 0 0,1 3,0Z" style="opacity: 1; stroke-width: 0px; fill: rgb(97, 107, 250); fill-opacity: 1;"/><path class="point" transform="translate(421.14,100.47)" d="M3,0A3,3 0 1,1 0,-3A3,3 0 0,1 3,0Z" style="opacity: 1; stroke-width: 0px; fill: rgb(97, 107, 250); fill-opacity: 1;"/><path class="point" transform="translate(427.28,99.81)" d="M3,0A3,3 0 1,1 0,-3A3,3 0 0,1 3,0Z" style="opacity: 1; stroke-width: 0px; fill: rgb(97, 107, 250); fill-opacity: 1;"/><path class="point" transform="translate(433.63,99.6)" d="M3,0A3,3 0 1,1 0,-3A3,3 0 0,1 3,0Z" style="opacity: 1; stroke-width: 0px; fill: rgb(97, 107, 250); fill-opacity: 1;"/><path class="point" transform="translate(440.21,99.4)" d="M3,0A3,3 0 1,1 0,-3A3,3 0 0,1 3,0Z" style="opacity: 1; stroke-width: 0px; fill: rgb(97, 107, 250); fill-opacity: 1;"/><path class="point" transform="translate(447.05,99.1)" d="M3,0A3,3 0 1,1 0,-3A3,3 0 0,1 3,0Z" style="opacity: 1; stroke-width: 0px; fill: rgb(97, 107, 250); fill-opacity: 1;"/><path class="point" transform="translate(454.18,98.51)" d="M3,0A3,3 0 1,1 0,-3A3,3 0 0,1 3,0Z" style="opacity: 1; stroke-width: 0px; fill: rgb(97, 107, 250); fill-opacity: 1;"/><path class="point" transform="translate(461.63,97.93)" d="M3,0A3,3 0 1,1 0,-3A3,3 0 0,1 3,0Z" style="opacity: 1; stroke-width: 0px; fill: rgb(97, 107, 250); fill-opacity: 1;"/><path class="point" transform="translate(469.46,97.34)" d="M3,0A3,3 0 1,1 0,-3A3,3 0 0,1 3,0Z" style="opacity: 1; stroke-width: 0px; fill: rgb(97, 107, 250); fill-opacity: 1;"/><path class="point" transform="translate(477.7,95.83)" d="M3,0A3,3 0 1,1 0,-3A3,3 0 0,1 3,0Z" style="opacity: 1; stroke-width: 0px; fill: rgb(97, 107, 250); fill-opacity: 1;"/><path class="point" transform="translate(486.43,94.08)" d="M3,0A3,3 0 1,1 0,-3A3,3 0 0,1 3,0Z" style="opacity: 1; stroke-width: 0px; fill: rgb(97, 107, 250); fill-opacity: 1;"/><path class="point" transform="translate(495.72,92.34)" d="M3,0A3,3 0 1,1 0,-3A3,3 0 0,1 3,0Z" style="opacity: 1; stroke-width: 0px; fill: rgb(97, 107, 250); fill-opacity: 1;"/><path class="point" transform="translate(505.68,91)" d="M3,0A3,3 0 1,1 0,-3A3,3 0 0,1 3,0Z" style="opacity: 1; stroke-width: 0px; fill: rgb(97, 107, 250); fill-opacity: 1;"/><path class="point" transform="translate(516.44,90.44)" d="M3,0A3,3 0 1,1 0,-3A3,3 0 0,1 3,0Z" style="opacity: 1; stroke-width: 0px; fill: rgb(97, 107, 250); fill-opacity: 1;"/><path class="point" transform="translate(528.18,89.88)" d="M3,0A3,3 0 1,1 0,-3A3,3 0 0,1 3,0Z" style="opacity: 1; stroke-width: 0px; fill: rgb(97, 107, 250); fill-opacity: 1;"/><path class="point" transform="translate(541.15,89.31)" d="M3,0A3,3 0 1,1 0,-3A3,3 0 0,1 3,0Z" style="opacity: 1; stroke-width: 0px; fill: rgb(97, 107, 250); fill-opacity: 1;"/><path class="point" transform="translate(555.7,84.74)" d="M3,0A3,3 0 1,1 0,-3A3,3 0 0,1 3,0Z" style="opacity: 1; stroke-width: 0px; fill: rgb(97, 107, 250); fill-opacity: 1;"/><path class="point" transform="translate(572.38,79.71)" d="M3,0A3,3 0 1,1 0,-3A3,3 0 0,1 3,0Z" style="opacity: 1; stroke-width: 0px; fill: rgb(97, 107, 250); fill-opacity: 1;"/><path class="point" transform="translate(592.08,74.67)" d="M3,0A3,3 0 1,1 0,-3A3,3 0 0,1 3,0Z" style="opacity: 1; stroke-width: 0px; fill: rgb(97, 107, 250); fill-opacity: 1;"/><path class="point" transform="translate(616.45,61.91)" d="M3,0A3,3 0 1,1 0,-3A3,3 0 0,1 3,0Z" style="opacity: 1; stroke-width: 0px; fill: rgb(97, 107, 250); fill-opacity: 1;"/><path class="point" transform="translate(649.06,39.63)" d="M3,0A3,3 0 1,1 0,-3A3,3 0 0,1 3,0Z" style="opacity: 1; stroke-width: 0px; fill: rgb(97, 107, 250); fill-opacity: 1;"/><path class="point" transform="translate(700.93,17.35)" d="M3,0A3,3 0 1,1 0,-3A3,3 0 0,1 3,0Z" style="opacity: 1; stroke-width: 0px; fill: rgb(97, 107, 250); fill-opacity: 1;"/></g><g class="text"/></g></g></g></g><g class="zerolinelayer-above"/><path class="xlines-above crisp" d="M0,0" style="fill: none;"/><path class="ylines-above crisp" d="M0,0" style="fill: none;"/><g class="overlines-above"/><g class="xaxislayer-above"><g class="xtick"><text text-anchor="middle" x="0" y="366" transform="translate(91.28,0)" style="font-family: 'Playfair Display'; font-size: 18px; fill: rgb(42, 63, 95); fill-opacity: 1; white-space: pre;">11</text></g><g class="xtick"><text text-anchor="middle" x="0" y="366" style="font-family: 'Playfair Display'; font-size: 18px; fill: rgb(42, 63, 95); fill-opacity: 1; white-space: pre;" transform="translate(200.45,0)">12</text></g><g class="xtick"><text text-anchor="middle" x="0" y="366" style="font-family: 'Playfair Display'; font-size: 18px; fill: rgb(42, 63, 95); fill-opacity: 1; white-space: pre;" transform="translate(309.62,0)">13</text></g><g class="xtick"><text text-anchor="middle" x="0" y="366" style="font-family: 'Playfair Display'; font-size: 18px; fill: rgb(42, 63, 95); fill-opacity: 1; white-space: pre;" transform="translate(418.8,0)">14</text></g><g class="xtick"><text text-anchor="middle" x="0" y="366" style="font-family: 'Playfair Display'; font-size: 18px; fill: rgb(42, 63, 95); fill-opacity: 1; white-space: pre;" transform="translate(527.97,0)">15</text></g><g class="xtick"><text text-anchor="middle" x="0" y="366" style="font-family: 'Playfair Display'; font-size: 18px; fill: rgb(42, 63, 95); fill-opacity: 1; white-space: pre;" transform="translate(637.14,0)">16</text></g><g class="xtick"><text text-anchor="middle" x="0" y="366" style="font-family: 'Playfair Display'; font-size: 18px; fill: rgb(42, 63, 95); fill-opacity: 1; white-space: pre;" transform="translate(746.31,0)">17</text></g></g><g class="yaxislayer-above"><g class="ytick"><text text-anchor="end" x="48" y="6.3" transform="translate(0,330.81)" style="font-family: 'Playfair Display'; font-size: 18px; fill: rgb(42, 63, 95); fill-opacity: 1; white-space: pre;">11</text></g><g class="ytick"><text text-anchor="end" x="48" y="6.3" style="font-family: 'Playfair Display'; font-size: 18px; fill: rgb(42, 63, 95); fill-opacity: 1; white-space: pre;" transform="translate(0,294.07)">12</text></g><g class="ytick"><text text-anchor="end" x="48" y="6.3" style="font-family: 'Playfair Display'; font-size: 18px; fill: rgb(42, 63, 95); fill-opacity: 1; white-space: pre;" transform="translate(0,257.34000000000003)">13</text></g><g class="ytick"><text text-anchor="end" x="48" y="6.3" style="font-family: 'Playfair Display'; font-size: 18px; fill: rgb(42, 63, 95); fill-opacity: 1; white-space: pre;" transform="translate(0,220.61)">14</text></g><g class="ytick"><text text-anchor="end" x="48" y="6.3" style="font-family: 'Playfair Display'; font-size: 18px; fill: rgb(42, 63, 95); fill-opacity: 1; white-space: pre;" transform="translate(0,183.88)">15</text></g><g class="ytick"><text text-anchor="end" x="48" y="6.3" style="font-family: 'Playfair Display'; font-size: 18px; fill: rgb(42, 63, 95); fill-opacity: 1; white-space: pre;" transform="translate(0,147.15)">16</text></g><g class="ytick"><text text-anchor="end" x="48" y="6.3" style="font-family: 'Playfair Display'; font-size: 18px; fill: rgb(42, 63, 95); fill-opacity: 1; white-space: pre;" transform="translate(0,110.41)">17</text></g></g><g class="overaxes-above"/></g></g><g class="polarlayer"/><g class="smithlayer"/><g class="ternarylayer"/><g class="geolayer"/><g class="funnelarealayer"/><g class="pielayer"/><g class="iciclelayer"/><g class="treemaplayer"/><g class="sunburstlayer"/><g class="glimages"/><defs id="topdefs-0c89ef"><g class="clips"/></defs><g class="layer-above"><g class="imagelayer"/><g class="shapelayer"/></g><g class="infolayer"><g class="g-gtitle"><text class="gtitle" x="400" y="37.5" text-anchor="middle" dy="0em" style="opacity: 1; font-family: 'Playfair Display'; font-size: 25px; fill: rgb(42, 63, 95); fill-opacity: 1; white-space: pre;"><tspan class="line" dy="0em" x="400" y="37.5">Vitesse du vent</tspan><tspan class="line" dy="1.3em" x="400" y="37.5">Weibull- 4 maximum annuels</tspan></text></g><g class="g-xtitle" transform="translate(0,-7.520117187499977)"><text class="xtitle" x="424.5" y="399.9" text-anchor="middle" style="opacity: 1; font-family: 'Playfair Display'; font-size: 22px; fill: rgb(42, 63, 95); fill-opacity: 1; white-space: pre;"><tspan style="font-style:italic">q</tspan>​<tspan style="font-size:70%" dy="0.3em">théorique</tspan><tspan dy="-0.21em">​</tspan></text></g><g class="g-ytitle" transform="translate(12.2001953125,0)"><text class="ytitle" transform="rotate(-90,7.799999999999997,211)" x="7.799999999999997" y="211" text-anchor="middle" style="opacity: 1; font-family: 'Playfair Display'; font-size: 22px; fill: rgb(42, 63, 95); fill-opacity: 1; white-space: pre;"><tspan style="font-style:italic">q</tspan>​<tspan style="font-size:70%" dy="0.3em">observations</tspan><tspan dy="-0.21em">​</tspan></text></g><g class="annotation" data-index="0" style="opacity: 1;"><g class="annotation-text-g" transform="rotate(0,106,87)"><g class="cursor-pointer" transform="translate(54,75)"><rect class="bg" x="0.5" y="0.5" width="103" height="23" style="stroke-width: 1px; stroke: rgb(0, 0, 0); stroke-opacity: 0; fill: rgb(0, 0, 0); fill-opacity: 0;"/><text class="annotation-text" text-anchor="start" x="2" y="18" style="font-family: 'Playfair Display'; font-size: 18px; fill: rgb(42, 63, 95); fill-opacity: 1; white-space: pre;">RMSE = 0.61</text></g></g></g><g class="annotation" data-index="1" style="opacity: 1;"><g class="annotation-text-g" transform="rotate(0,144.5,114.19999999999999)"><g class="cursor-pointer" transform="translate(54,102)"><rect class="bg" x="0.5" y="0.5" width="180" height="23" style="stroke-width: 1px; stroke: rgb(0, 0, 0); stroke-opacity: 0; fill: rgb(0, 0, 0); fill-opacity: 0;"/><text class="annotation-text" text-anchor="start" x="2" y="18" style="font-family: 'Playfair Display'; font-size: 18px; fill: rgb(42, 63, 95); fill-opacity: 1; white-space: pre;">RMSE (top 25%) = 0.21</text></g></g></g></g></svg>